<svg width="67" height="67" viewBox="0 0 67 67" fill="none" xmlns="http://www.w3.org/2000/svg">
<rect y="2.23364" width="64" height="64" transform="rotate(-2 0 2.23364)" fill="#019FC4"/>
<path fill-rule="evenodd" clip-rule="evenodd" d="M19.1456 13.9461C19.0647 13.8707 18.9374 13.8751 18.862 13.956L13.0096 20.2319C12.9342 20.3128 12.9386 20.4402 13.0195 20.5156L47.0571 52.2562L53.1833 45.6867L19.1456 13.9461ZM17.9003 13.0592C18.471 12.4473 19.4304 12.4138 20.0423 12.9844L54.5608 45.1734C54.8264 45.4211 54.8409 45.8371 54.5933 46.1026L47.5704 53.6337C47.3228 53.8993 46.9067 53.9138 46.6412 53.6662L12.1227 21.4772C11.5108 20.9065 11.4773 19.9471 12.0479 19.3352L17.9003 13.0592Z" fill="white"/>
<path d="M47.0891 53.1852L50.6005 49.4196L54.112 45.6541L54.3661 52.9311L47.0891 53.1852Z" fill="white"/>
<path fill-rule="evenodd" clip-rule="evenodd" d="M54.343 45.0384C54.5921 45.1315 54.7605 45.3655 54.7698 45.6312L55.0239 52.9082C55.0366 53.2711 54.7527 53.5755 54.3898 53.5882L47.1128 53.8423C46.8471 53.8516 46.6019 53.6999 46.4916 53.4579C46.3814 53.2159 46.4277 52.9314 46.6091 52.7369L53.6319 45.2058C53.8133 45.0113 54.0939 44.9452 54.343 45.0384ZM53.5111 47.2633L48.6531 52.4728L53.6869 52.2971L53.5111 47.2633Z" fill="white"/>
<path fill-rule="evenodd" clip-rule="evenodd" d="M49.1591 16.1801C49.3682 16.3751 49.4273 16.6828 49.3053 16.9414L45.7014 24.5808C45.6724 24.6423 45.634 24.6989 45.5876 24.7487L39.1245 31.6787C38.8769 31.9442 38.4608 31.9587 38.1953 31.7111C37.9298 31.4634 37.9153 31.0474 38.1629 30.7819L44.5561 23.927L47.2396 18.2385L41.7521 21.3123L35.3589 28.1672C35.1113 28.4328 34.6953 28.4473 34.4298 28.1996C34.1642 27.952 34.1497 27.536 34.3974 27.2704L40.8605 20.3405C40.9069 20.2907 40.9607 20.2485 41.02 20.2153L48.3894 16.0873C48.6388 15.9476 48.95 15.9851 49.1591 16.1801Z" fill="white"/>
<path fill-rule="evenodd" clip-rule="evenodd" d="M28.3038 34.7693C28.5693 35.0169 28.5838 35.4329 28.3362 35.6985L18.4118 46.3411C18.3364 46.422 18.3409 46.5493 18.4217 46.6247L20.9321 48.9657C21.0129 49.0411 21.1403 49.0367 21.2157 48.9558L31.1401 38.3132C31.3878 38.0476 31.8038 38.0331 32.0693 38.2807C32.3349 38.5283 32.3494 38.9444 32.1018 39.2099L22.1774 49.8525C21.6067 50.4645 20.6473 50.498 20.0354 49.9273L17.525 47.5864C16.913 47.0157 16.8795 46.0563 17.4502 45.4444L27.3746 34.8017C27.6222 34.5362 28.0382 34.5217 28.3038 34.7693Z" fill="white"/>
<path fill-rule="evenodd" clip-rule="evenodd" d="M40.8605 20.3407C41.1082 20.0752 41.5242 20.0607 41.7897 20.3083L45.5553 23.8197C45.8208 24.0674 45.8353 24.4834 45.5877 24.7489C45.3401 25.0145 44.9241 25.029 44.6585 24.7814L40.893 21.2699C40.6274 21.0223 40.6129 20.6063 40.8605 20.3407Z" fill="white"/>
<path fill-rule="evenodd" clip-rule="evenodd" d="M19.2062 43.5617C19.4539 43.2961 19.8699 43.2816 20.1354 43.5292L23.901 47.0407C24.1665 47.2883 24.1811 47.7043 23.9334 47.9699C23.6858 48.2354 23.2698 48.2499 23.0042 48.0023L19.2387 44.4909C18.9731 44.2433 18.9586 43.8272 19.2062 43.5617Z" fill="white"/>
<path fill-rule="evenodd" clip-rule="evenodd" d="M16.8894 20.1399C17.155 20.3876 17.1695 20.8036 16.9219 21.0691L14.9344 23.2005C14.6867 23.466 14.2707 23.4806 14.0052 23.2329C13.7396 22.9853 13.7251 22.5693 13.9727 22.3037L15.9602 20.1724C16.2079 19.9068 16.6239 19.8923 16.8894 20.1399Z" fill="white"/>
<path fill-rule="evenodd" clip-rule="evenodd" d="M20.571 21.2258C20.8366 21.4734 20.8511 21.8894 20.6035 22.155L17.4455 25.5415C17.1978 25.807 16.7818 25.8216 16.5163 25.5739C16.2507 25.3263 16.2362 24.9103 16.4838 24.6447L19.6418 21.2582C19.8895 20.9927 20.3055 20.9781 20.571 21.2258Z" fill="white"/>
<path fill-rule="evenodd" clip-rule="evenodd" d="M21.9104 24.8218C22.176 25.0695 22.1905 25.4855 21.9429 25.751L19.9554 27.8824C19.7077 28.1479 19.2917 28.1624 19.0262 27.9148C18.7606 27.6672 18.7461 27.2512 18.9937 26.9856L20.9812 24.8543C21.2289 24.5887 21.6449 24.5742 21.9104 24.8218Z" fill="white"/>
<path fill-rule="evenodd" clip-rule="evenodd" d="M25.5913 25.9077C25.8568 26.1553 25.8714 26.5713 25.6237 26.8368L22.4657 30.2234C22.2181 30.4889 21.8021 30.5034 21.5366 30.2558C21.271 30.0082 21.2565 29.5922 21.5041 29.3266L24.6621 25.9401C24.9097 25.6746 25.3257 25.66 25.5913 25.9077Z" fill="white"/>
<path fill-rule="evenodd" clip-rule="evenodd" d="M26.9315 29.5048C27.197 29.7525 27.2115 30.1685 26.9638 30.434L24.9762 32.5645C24.7286 32.83 24.3125 32.8444 24.047 32.5967C23.7816 32.349 23.7671 31.933 24.0148 31.6675L26.0023 29.537C26.25 29.2715 26.666 29.2571 26.9315 29.5048Z" fill="white"/>
<path fill-rule="evenodd" clip-rule="evenodd" d="M30.6118 30.5906C30.8774 30.8382 30.8918 31.2542 30.6442 31.5198L27.4862 34.9054C27.2385 35.171 26.8225 35.1854 26.557 34.9378C26.2915 34.6901 26.277 34.2741 26.5246 34.0086L29.6827 30.6229C29.9303 30.3574 30.3463 30.3429 30.6118 30.5906Z" fill="white"/>
<path fill-rule="evenodd" clip-rule="evenodd" d="M31.9525 34.1864C32.218 34.4341 32.2325 34.8501 31.9848 35.1156L29.9972 37.2461C29.7496 37.5116 29.3335 37.5261 29.068 37.2784C28.8025 37.0307 28.7881 36.6147 29.0358 36.3492L31.0233 34.2187C31.271 33.9532 31.687 33.9387 31.9525 34.1864Z" fill="white"/>
<path fill-rule="evenodd" clip-rule="evenodd" d="M35.6328 35.2722C35.8983 35.5198 35.9129 35.9358 35.6652 36.2013L32.5072 39.5879C32.2596 39.8534 31.8436 39.8679 31.5781 39.6203C31.3125 39.3727 31.298 38.9567 31.5456 38.6911L34.7036 35.3046C34.9512 35.0391 35.3672 35.0245 35.6328 35.2722Z" fill="white"/>
<path fill-rule="evenodd" clip-rule="evenodd" d="M36.9724 38.8685C37.238 39.1161 37.2525 39.5321 37.0049 39.7976L35.0174 41.929C34.7697 42.1945 34.3537 42.2091 34.0882 41.9614C33.8226 41.7138 33.8081 41.2978 34.0557 41.0323L36.0433 38.9009C36.2909 38.6354 36.7069 38.6208 36.9724 38.8685Z" fill="white"/>
<path fill-rule="evenodd" clip-rule="evenodd" d="M40.6538 39.9543C40.9193 40.2019 40.9339 40.6179 40.6862 40.8835L37.5282 44.27C37.2806 44.5355 36.8646 44.5501 36.5991 44.3025C36.3335 44.0548 36.319 43.6388 36.5666 43.3733L39.7246 39.9867C39.9722 39.7212 40.3882 39.7067 40.6538 39.9543Z" fill="white"/>
<path fill-rule="evenodd" clip-rule="evenodd" d="M41.9932 43.5503C42.2588 43.7979 42.2734 44.2139 42.0259 44.4795L40.0392 46.6108C39.7916 46.8764 39.3756 46.891 39.11 46.6434C38.8444 46.3959 38.8298 45.9798 39.0774 45.7142L41.064 43.5829C41.3116 43.3173 41.7276 43.3027 41.9932 43.5503Z" fill="white"/>
<path fill-rule="evenodd" clip-rule="evenodd" d="M45.6753 44.6359C45.9408 44.8836 45.9553 45.2996 45.7077 45.5651L42.5497 48.9516C42.3021 49.2172 41.8861 49.2317 41.6205 48.9841C41.355 48.7365 41.3405 48.3205 41.5881 48.0549L44.7461 44.6684C44.9937 44.4028 45.4097 44.3883 45.6753 44.6359Z" fill="white"/>
<path fill-rule="evenodd" clip-rule="evenodd" d="M47.0152 48.232C47.2807 48.4796 47.2952 48.8956 47.0476 49.1612L45.0601 51.2925C44.8125 51.5581 44.3965 51.5726 44.1309 51.325C43.8654 51.0773 43.8508 50.6613 44.0985 50.3958L46.086 48.2644C46.3336 47.9989 46.7496 47.9844 47.0152 48.232Z" fill="white"/>
<path d="M47.2293 19.8006L45.6814 18.3572L48.7109 16.6611L47.2293 19.8006Z" fill="white"/>
</svg>
