<svg width="67" height="67" viewBox="0 0 67 67" fill="none" xmlns="http://www.w3.org/2000/svg">
<rect y="2.23364" width="64" height="64" transform="rotate(-2 0 2.23364)" fill="#019FC4"/>
<path fill-rule="evenodd" clip-rule="evenodd" d="M20.7415 27.4251C20.4907 20.2432 26.1301 15.3361 33.4596 15.0802C40.7891 14.8242 46.7571 19.3259 47.0079 26.5079L47.3904 37.4595C47.5781 42.835 43.731 47.4163 38.5681 48.2874C38.2054 46.8367 36.8686 45.7858 35.3141 45.8401L34.0672 45.8836C32.2802 45.946 30.8819 47.4455 30.9444 49.2325C31.0068 51.0195 32.5062 52.4177 34.2932 52.3553L35.5401 52.3118C37.1577 52.2553 38.4567 51.0214 38.6422 49.4625C43.4147 48.7084 47.1961 45.1056 48.2649 40.4998L49.5122 40.4562C52.1456 40.3642 54.2061 38.1547 54.1141 35.5213L54.0579 33.9104C53.9659 31.277 51.7563 29.2166 49.1229 29.3085L48.2792 29.338L48.1789 26.467C47.9006 18.4957 41.2424 13.636 33.4187 13.9092C25.595 14.1824 19.2921 19.4947 19.5705 27.466L19.6707 30.3361L18.853 30.3647C16.2196 30.4567 14.1591 32.6662 14.2511 35.2996L14.3073 36.9105C14.3993 39.5445 16.6089 41.605 19.2429 41.513L20.9046 41.455C20.9427 41.4547 20.9812 41.4507 21.0198 41.4428C21.0684 41.4328 21.1149 41.4168 21.1582 41.3957C21.2311 41.3602 21.2943 41.3107 21.3454 41.2513C21.4383 41.1436 21.4924 41.0018 21.4871 40.8484C21.4853 40.7972 21.477 40.7478 21.463 40.701C21.2684 39.9567 21.1519 39.1787 21.1239 38.3767L20.8682 31.0526C20.8829 30.9977 20.8899 30.9397 20.8878 30.8799C20.8857 30.82 20.8747 30.7626 20.8562 30.7089L20.7415 27.4251ZM48.3201 30.509L48.5614 37.4186C48.5839 38.0641 48.5541 38.6992 48.4757 39.32L49.4713 39.2852C51.458 39.2158 53.0125 37.5488 52.9431 35.5621L52.8869 33.9513C52.8175 31.9646 51.1505 30.4101 49.1638 30.4795L48.3201 30.509ZM18.8939 31.5357L19.7116 31.5071L19.9529 38.4176C19.9755 39.0626 20.0496 39.6942 20.1712 40.3081L19.202 40.342C17.2147 40.4114 15.5477 38.8569 15.4783 36.8696L15.4221 35.2588C15.3527 33.2721 16.9072 31.6051 18.8939 31.5357ZM37.4881 48.9299C37.4872 48.958 37.4884 48.9866 37.4917 49.0153L37.4926 49.0227C37.5219 50.1547 36.6332 51.1012 35.4992 51.1408L34.2523 51.1843C33.112 51.2242 32.1552 50.3319 32.1153 49.1916C32.0755 48.0513 32.9678 47.0945 34.1081 47.0546L35.355 47.0111C36.4706 46.9721 37.4105 47.8252 37.4881 48.9299ZM27.0575 27.4773C27.2566 27.2223 27.2113 26.8541 26.9563 26.655C26.7013 26.4558 26.3331 26.5011 26.134 26.7562L23.5446 30.0722C23.4598 30.1807 23.416 30.3156 23.4208 30.4532L23.6821 37.936C23.8024 41.3799 25.9095 44.2851 28.8609 45.5906C29.1568 45.7215 29.5028 45.5877 29.6337 45.2918C29.7646 44.9959 29.6308 44.6499 29.3349 44.519C26.7784 43.3882 24.9571 40.8734 24.8531 37.8951L24.5993 30.6253L27.0575 27.4773ZM26.3728 22.2053C26.6406 22.0236 27.0049 22.0934 27.1866 22.3612C28.0109 23.5764 29.4406 24.6284 31.1917 25.5204C32.9332 26.4074 34.9379 27.109 36.8487 27.6504C38.7568 28.191 40.5557 28.5674 41.8785 28.8087C42.5394 28.9293 43.0802 29.0159 43.455 29.0722C43.6424 29.1004 43.7881 29.121 43.8865 29.1345C43.9357 29.1412 43.9731 29.1462 43.9979 29.1494L44.0256 29.153L44.0322 29.1539L44.0336 29.1541C44.319 29.1898 44.5365 29.4275 44.5465 29.7149L44.8078 37.1978C44.9114 40.1645 43.5158 42.8367 41.3034 44.483C41.0438 44.6761 40.6768 44.6223 40.4836 44.3627C40.2905 44.1031 40.3443 43.7361 40.6039 43.5429C42.5207 42.1166 43.7264 39.8048 43.6368 37.2387L43.3927 30.2476L43.2808 30.2309C42.8955 30.173 42.3425 30.0844 41.6682 29.9614C40.3205 29.7156 38.4834 29.3313 36.5293 28.7777C34.5777 28.2248 32.4939 27.4987 30.6599 26.5644C28.8354 25.6351 27.2027 24.4722 26.2169 23.019C26.0353 22.7512 26.1051 22.3869 26.3728 22.2053Z" fill="white"/>
<path d="M20.7415 27.4251L20.4916 27.4338L20.7415 27.4251ZM38.5681 48.2874L38.3256 48.348C38.3573 48.4747 38.481 48.5556 38.6097 48.5339L38.5681 48.2874ZM35.3141 45.8401L35.3229 46.0899L35.3141 45.8401ZM34.0672 45.8836L34.0585 45.6338L34.0672 45.8836ZM38.6422 49.4625L38.6032 49.2156C38.4927 49.233 38.4072 49.3218 38.394 49.433L38.6422 49.4625ZM48.2649 40.4998L48.2562 40.2499C48.1432 40.2539 48.0469 40.3331 48.0214 40.4432L48.2649 40.4998ZM49.5122 40.4562L49.5209 40.706L49.5122 40.4562ZM49.1229 29.3085L49.1316 29.5584L49.1229 29.3085ZM48.2792 29.338L48.0293 29.3467C48.0342 29.4847 48.1499 29.5926 48.2879 29.5878L48.2792 29.338ZM19.5705 27.466L19.3206 27.4747L19.5705 27.466ZM19.6707 30.3361L19.6794 30.586C19.7457 30.5837 19.8083 30.5551 19.8536 30.5066C19.8988 30.4582 19.9229 30.3937 19.9206 30.3274L19.6707 30.3361ZM18.853 30.3647L18.8617 30.6145L18.853 30.3647ZM20.9046 41.455L20.9031 41.2049L20.8959 41.2051L20.9046 41.455ZM21.0198 41.4428L20.9696 41.1978L20.969 41.198L21.0198 41.4428ZM21.1582 41.3957L21.0489 41.1708L21.0486 41.171L21.1582 41.3957ZM21.3454 41.2513L21.156 41.0881L21.1558 41.0884L21.3454 41.2513ZM21.463 40.701L21.221 40.7643L21.2235 40.7724L21.463 40.701ZM20.8682 31.0526L20.6267 30.9877C20.6203 31.0117 20.6174 31.0365 20.6183 31.0613L20.8682 31.0526ZM20.8562 30.7089L20.6063 30.7176C20.6072 30.7424 20.6117 30.767 20.6198 30.7905L20.8562 30.7089ZM48.3201 30.509L48.3114 30.2591C48.1734 30.2639 48.0654 30.3797 48.0702 30.5177L48.3201 30.509ZM48.4757 39.32L48.2276 39.2886C48.2185 39.3614 48.2416 39.4344 48.2911 39.4886C48.3405 39.5427 48.4112 39.5724 48.4844 39.5698L48.4757 39.32ZM49.4713 39.2852L49.4626 39.0354L49.4713 39.2852ZM49.1638 30.4795L49.1551 30.2297L49.1638 30.4795ZM19.7116 31.5071L19.9615 31.4984C19.9566 31.3604 19.8409 31.2525 19.7029 31.2573L19.7116 31.5071ZM18.8939 31.5357L18.8851 31.2858L18.8939 31.5357ZM19.9529 38.4176L20.2028 38.4089L19.9529 38.4176ZM20.1712 40.3081L20.1799 40.558C20.2532 40.5554 20.3216 40.5209 20.3671 40.4634C20.4127 40.406 20.4307 40.3315 20.4165 40.2596L20.1712 40.3081ZM19.202 40.342L19.2107 40.5918L19.202 40.342ZM37.4917 49.0153L37.2433 49.0437L37.2435 49.0453L37.4917 49.0153ZM37.4881 48.9299L37.738 48.9376C37.7382 48.9292 37.7381 48.9208 37.7375 48.9124L37.4881 48.9299ZM37.4926 49.0227L37.7425 49.0162C37.7423 49.0084 37.7417 49.0005 37.7408 48.9928L37.4926 49.0227ZM35.4992 51.1408L35.4905 50.8909L35.4992 51.1408ZM34.2523 51.1843L34.261 51.4342L34.2523 51.1843ZM26.9563 26.655L26.8024 26.852L26.9563 26.655ZM27.0575 27.4773L26.8604 27.3234L27.0575 27.4773ZM26.134 26.7562L25.9369 26.6023L26.134 26.7562ZM23.5446 30.0722L23.3475 29.9183L23.5446 30.0722ZM23.4208 30.4532L23.171 30.4619L23.4208 30.4532ZM23.6821 37.936L23.932 37.9273L23.6821 37.936ZM28.8609 45.5906L28.9621 45.362L28.8609 45.5906ZM29.3349 44.519L29.2338 44.7477L29.3349 44.519ZM24.5993 30.6253L24.4022 30.4714C24.3661 30.5178 24.3474 30.5753 24.3494 30.634L24.5993 30.6253ZM27.1866 22.3612L27.3934 22.2209L27.1866 22.3612ZM26.3728 22.2053L26.2325 21.9984L26.2325 21.9984L26.3728 22.2053ZM31.1917 25.5204L31.3052 25.2976L31.1917 25.5204ZM36.8487 27.6504L36.9168 27.4098L36.8487 27.6504ZM41.8785 28.8087L41.8336 29.0547L41.8785 28.8087ZM43.455 29.0722L43.4922 28.825L43.455 29.0722ZM43.8865 29.1345L43.8526 29.3822L43.8526 29.3822L43.8865 29.1345ZM43.9979 29.1494L43.9654 29.3973L43.9657 29.3974L43.9979 29.1494ZM44.0256 29.153L43.9934 29.401L43.9939 29.401L44.0256 29.153ZM44.0322 29.1539L44.0005 29.4019L44.0009 29.4019L44.0322 29.1539ZM44.0336 29.1541L44.0024 29.4021L44.0025 29.4021L44.0336 29.1541ZM41.3034 44.483L41.1541 44.2824L41.1541 44.2824L41.3034 44.483ZM40.6039 43.5429L40.7531 43.7435L40.7531 43.7435L40.6039 43.5429ZM43.3927 30.2476L43.6425 30.2388C43.6383 30.1184 43.5488 30.0181 43.4295 30.0003L43.3927 30.2476ZM43.2808 30.2309L43.2436 30.4781L43.2439 30.4782L43.2808 30.2309ZM41.6682 29.9614L41.6234 30.2073L41.6234 30.2073L41.6682 29.9614ZM36.5293 28.7777L36.4611 29.0182L36.5293 28.7777ZM30.6599 26.5644L30.7733 26.3416L30.6599 26.5644ZM26.2169 23.019L26.4238 22.8786L26.2169 23.019ZM33.4509 14.8303C26.0155 15.09 20.235 20.0839 20.4916 27.4338L20.9913 27.4164C20.7464 20.4025 26.2448 15.5823 33.4684 15.33L33.4509 14.8303ZM47.2578 26.4991C47.0011 19.1492 40.8863 14.5707 33.4509 14.8303L33.4684 15.33C40.6919 15.0778 46.5132 19.5027 46.7581 26.5166L47.2578 26.4991ZM47.6402 37.4508L47.2578 26.4991L46.7581 26.5166L47.1405 37.4682L47.6402 37.4508ZM38.6097 48.5339C43.8946 47.6423 47.8324 42.9531 47.6402 37.4508L47.1405 37.4682C47.3238 42.7168 43.5675 47.1904 38.5265 48.0409L38.6097 48.5339ZM35.3229 46.0899C36.757 46.0399 37.9909 47.0095 38.3256 48.348L38.8107 48.2267C38.4199 46.664 36.9802 45.5318 35.3054 45.5902L35.3229 46.0899ZM34.0759 46.1335L35.3229 46.0899L35.3054 45.5902L34.0585 45.6338L34.0759 46.1335ZM31.1942 49.2238C31.1366 47.5747 32.4269 46.1911 34.0759 46.1335L34.0585 45.6338C32.1335 45.701 30.6273 47.3162 30.6945 49.2412L31.1942 49.2238ZM34.2845 52.1055C32.6354 52.1631 31.2518 50.8728 31.1942 49.2238L30.6945 49.2412C30.7617 51.1662 32.3769 52.6724 34.3019 52.6052L34.2845 52.1055ZM35.5314 52.0619L34.2845 52.1055L34.3019 52.6052L35.5489 52.5616L35.5314 52.0619ZM38.394 49.433C38.2228 50.8713 37.0238 52.0098 35.5314 52.0619L35.5489 52.5616C37.2916 52.5008 38.6906 51.1715 38.8905 49.4921L38.394 49.433ZM48.0214 40.4432C46.9753 44.9512 43.2737 48.4776 38.6032 49.2156L38.6813 49.7094C43.5556 48.9393 47.4169 45.26 48.5084 40.5563L48.0214 40.4432ZM49.5035 40.2064L48.2562 40.2499L48.2736 40.7496L49.5209 40.706L49.5035 40.2064ZM53.8643 35.53C53.9514 38.0254 51.9989 40.1192 49.5035 40.2064L49.5209 40.706C52.2923 40.6093 54.4607 38.2839 54.364 35.5125L53.8643 35.53ZM53.808 33.9192L53.8643 35.53L54.364 35.5125L54.3077 33.9017L53.808 33.9192ZM49.1316 29.5584C51.6271 29.4712 53.7209 31.4237 53.808 33.9192L54.3077 33.9017C54.2109 31.1303 51.8856 28.9619 49.1142 29.0587L49.1316 29.5584ZM48.2879 29.5878L49.1316 29.5584L49.1142 29.0587L48.2705 29.0881L48.2879 29.5878ZM47.9291 26.4757L48.0293 29.3467L48.529 29.3293L48.4288 26.4582L47.9291 26.4757ZM33.4275 14.159C41.1462 13.8895 47.6566 18.6732 47.9291 26.4757L48.4288 26.4582C48.1445 18.3182 41.3387 13.3825 33.41 13.6593L33.4275 14.159ZM19.8203 27.4573C19.5479 19.6548 25.7088 14.4286 33.4275 14.159L33.41 13.6593C25.4813 13.9362 19.0364 19.3346 19.3206 27.4747L19.8203 27.4573ZM19.9206 30.3274L19.8203 27.4573L19.3206 27.4747L19.4209 30.3449L19.9206 30.3274ZM18.8617 30.6145L19.6794 30.586L19.662 30.0863L18.8442 30.1149L18.8617 30.6145ZM14.5009 35.2909C14.4138 32.7955 16.3663 30.7017 18.8617 30.6145L18.8442 30.1149C16.0728 30.2116 13.9044 32.537 14.0012 35.3084L14.5009 35.2909ZM14.5572 36.9017L14.5009 35.2909L14.0012 35.3084L14.0575 36.9192L14.5572 36.9017ZM19.2342 41.2631C16.7381 41.3503 14.6443 39.3978 14.5572 36.9017L14.0575 36.9192C14.1543 39.6912 16.4796 41.8596 19.2516 41.7628L19.2342 41.2631ZM20.8959 41.2051L19.2342 41.2631L19.2516 41.7628L20.9134 41.7048L20.8959 41.2051ZM20.969 41.198C20.9468 41.2026 20.9248 41.2048 20.9031 41.205L20.9062 41.7049C20.9606 41.7046 21.0156 41.6989 21.0705 41.6876L20.969 41.198ZM21.0486 41.171C21.0239 41.183 20.9974 41.1922 20.9696 41.1978L21.0699 41.6877C21.1395 41.6734 21.2059 41.6506 21.2678 41.6203L21.0486 41.171ZM21.1558 41.0884C21.1265 41.1224 21.0904 41.1506 21.0489 41.1708L21.2675 41.6205C21.3718 41.5698 21.4622 41.4989 21.5349 41.4143L21.1558 41.0884ZM21.2372 40.8571C21.2403 40.9452 21.2095 41.0261 21.156 41.0881L21.5347 41.4146C21.6671 41.261 21.7446 41.0585 21.7369 40.8397L21.2372 40.8571ZM21.2235 40.7724C21.2314 40.7991 21.2362 40.8274 21.2372 40.8571L21.7369 40.8397C21.7344 40.7671 21.7226 40.6966 21.7026 40.6295L21.2235 40.7724ZM20.8741 38.3855C20.9027 39.206 21.0219 40.0023 21.2212 40.7642L21.7049 40.6377C21.5149 39.9112 21.4011 39.1514 21.3738 38.368L20.8741 38.3855ZM20.6183 31.0613L20.8741 38.3855L21.3738 38.368L21.118 31.0439L20.6183 31.0613ZM20.6379 30.8886C20.6392 30.9233 20.6351 30.9565 20.6267 30.9877L21.1096 31.1175C21.1307 31.0389 21.1406 30.956 21.1376 30.8711L20.6379 30.8886ZM20.6198 30.7905C20.6304 30.821 20.6367 30.8539 20.6379 30.8886L21.1376 30.8711C21.1347 30.7862 21.119 30.7043 21.0925 30.6273L20.6198 30.7905ZM20.4916 27.4338L20.6063 30.7176L21.106 30.7001L20.9913 27.4164L20.4916 27.4338ZM48.0702 30.5177L48.3115 37.4273L48.8112 37.4099L48.5699 30.5003L48.0702 30.5177ZM48.3115 37.4273C48.3336 38.0594 48.3044 38.6811 48.2276 39.2886L48.7237 39.3513C48.8038 38.7173 48.8342 38.0688 48.8112 37.4099L48.3115 37.4273ZM48.4844 39.5698L49.48 39.5351L49.4626 39.0354L48.4669 39.0701L48.4844 39.5698ZM49.48 39.5351C51.6047 39.4609 53.2672 37.6781 53.193 35.5534L52.6933 35.5709C52.7578 37.4196 51.3113 38.9708 49.4626 39.0354L49.48 39.5351ZM53.193 35.5534L53.1367 33.9426L52.637 33.96L52.6933 35.5709L53.193 35.5534ZM53.1367 33.9426C53.0625 31.8179 51.2798 30.1555 49.1551 30.2297L49.1725 30.7294C51.0212 30.6648 52.5725 32.1113 52.637 33.96L53.1367 33.9426ZM49.1551 30.2297L48.3114 30.2591L48.3288 30.7588L49.1725 30.7294L49.1551 30.2297ZM19.7029 31.2573L18.8851 31.2858L18.9026 31.7855L19.7203 31.757L19.7029 31.2573ZM20.2028 38.4089L19.9615 31.4984L19.4618 31.5159L19.7031 38.4263L20.2028 38.4089ZM20.4165 40.2596C20.2974 39.6587 20.2248 39.0404 20.2028 38.4089L19.7031 38.4263C19.7261 39.0847 19.8018 39.7297 19.926 40.3567L20.4165 40.2596ZM19.2107 40.5918L20.1799 40.558L20.1625 40.0583L19.1933 40.0921L19.2107 40.5918ZM15.2285 36.8783C15.3027 39.0036 17.0854 40.6661 19.2107 40.5918L19.1933 40.0921C17.344 40.1567 15.7927 38.7102 15.7282 36.8609L15.2285 36.8783ZM15.1722 35.2675L15.2285 36.8783L15.7282 36.8609L15.6719 35.25L15.1722 35.2675ZM18.8851 31.2858C16.7605 31.36 15.098 33.1428 15.1722 35.2675L15.6719 35.25C15.6073 33.4013 17.0539 31.8501 18.9026 31.7855L18.8851 31.2858ZM37.74 48.9869C37.7381 48.9702 37.7375 48.9537 37.738 48.9376L37.2382 48.9222C37.237 48.9623 37.2386 49.0029 37.2433 49.0437L37.74 48.9869ZM37.7408 48.9928L37.7399 48.9854L37.2435 49.0453L37.2444 49.0527L37.7408 48.9928ZM35.508 51.3906C36.7792 51.3462 37.7754 50.2852 37.7425 49.0162L37.2426 49.0292C37.2685 50.0241 36.4873 50.8561 35.4905 50.8909L35.508 51.3906ZM34.261 51.4342L35.508 51.3906L35.4905 50.8909L34.2436 50.9345L34.261 51.4342ZM31.8655 49.2003C31.9101 50.4786 32.9827 51.4788 34.261 51.4342L34.2436 50.9345C33.2413 50.9695 32.4002 50.1852 32.3652 49.1829L31.8655 49.2003ZM34.0994 46.8048C32.8211 46.8494 31.8209 47.922 31.8655 49.2003L32.3652 49.1829C32.3302 48.1806 33.1145 47.3395 34.1168 47.3045L34.0994 46.8048ZM35.3463 46.7612L34.0994 46.8048L34.1168 47.3045L35.3637 47.2609L35.3463 46.7612ZM37.7375 48.9124C37.6505 47.6739 36.5969 46.7176 35.3463 46.7612L35.3637 47.2609C36.3442 47.2267 37.1705 47.9766 37.2387 48.9474L37.7375 48.9124ZM26.8024 26.852C26.9486 26.9662 26.9746 27.1772 26.8604 27.3234L27.2545 27.6312C27.5386 27.2673 27.474 26.7421 27.1102 26.4579L26.8024 26.852ZM26.331 26.91C26.4452 26.7638 26.6562 26.7379 26.8024 26.852L27.1102 26.4579C26.7463 26.1738 26.221 26.2385 25.9369 26.6023L26.331 26.91ZM23.7416 30.226L26.331 26.91L25.9369 26.6023L23.3475 29.9183L23.7416 30.226ZM23.6707 30.4445C23.6679 30.3656 23.693 30.2882 23.7416 30.226L23.3475 29.9183C23.2266 30.0731 23.1641 30.2656 23.171 30.4619L23.6707 30.4445ZM23.932 37.9273L23.6707 30.4445L23.171 30.4619L23.4323 37.9447L23.932 37.9273ZM28.9621 45.362C26.0949 44.0937 24.0488 41.2718 23.932 37.9273L23.4323 37.9447C23.556 41.4881 25.7242 44.4764 28.7598 45.8192L28.9621 45.362ZM29.4051 45.1907C29.33 45.3603 29.1317 45.437 28.9621 45.362L28.7598 45.8192C29.182 46.006 29.6756 45.8151 29.8623 45.3929L29.4051 45.1907ZM29.2338 44.7477C29.4034 44.8227 29.4801 45.021 29.4051 45.1907L29.8623 45.3929C30.0491 44.9708 29.8582 44.4771 29.4361 44.2904L29.2338 44.7477ZM24.6033 37.9038C24.7108 40.9814 26.593 43.5795 29.2338 44.7477L29.4361 44.2904C26.9638 43.1968 25.2035 40.7653 25.103 37.8864L24.6033 37.9038ZM24.3494 30.634L24.6033 37.9038L25.103 37.8864L24.8491 30.6166L24.3494 30.634ZM26.8604 27.3234L24.4022 30.4714L24.7963 30.7792L27.2545 27.6312L26.8604 27.3234ZM27.3934 22.2209C27.1343 21.8388 26.6145 21.7392 26.2325 21.9984L26.5132 22.4122C26.6667 22.308 26.8755 22.348 26.9797 22.5016L27.3934 22.2209ZM31.3052 25.2976C29.5697 24.4136 28.1833 23.3852 27.3934 22.2209L26.9797 22.5016C27.8384 23.7675 29.3115 24.8432 31.0782 25.7431L31.3052 25.2976ZM36.9168 27.4098C35.0148 26.871 33.0269 26.1746 31.3052 25.2976L31.0782 25.7431C32.8394 26.6403 34.8611 27.3471 36.7805 27.8909L36.9168 27.4098ZM41.9233 28.5628C40.6059 28.3224 38.8152 27.9477 36.9168 27.4098L36.7805 27.8909C38.6985 28.4343 40.5055 28.8124 41.8336 29.0547L41.9233 28.5628ZM43.4922 28.825C43.1197 28.769 42.5814 28.6828 41.9233 28.5628L41.8336 29.0547C42.4974 29.1757 43.0408 29.2627 43.4178 29.3194L43.4922 28.825ZM43.9205 28.8868C43.8231 28.8734 43.6784 28.853 43.4922 28.825L43.4178 29.3194C43.6063 29.3478 43.7532 29.3685 43.8526 29.3822L43.9205 28.8868ZM44.0304 28.9016C44.0061 28.8984 43.9692 28.8935 43.9205 28.8868L43.8526 29.3822C43.9023 29.389 43.9401 29.394 43.9654 29.3973L44.0304 28.9016ZM44.0577 28.9051L44.03 28.9015L43.9657 29.3974L43.9934 29.401L44.0577 28.9051ZM44.0638 28.9059L44.0572 28.905L43.9939 29.401L44.0005 29.4019L44.0638 28.9059ZM44.0649 28.906L44.0634 28.9058L44.0009 29.4019L44.0024 29.4021L44.0649 28.906ZM44.7964 29.7062C44.782 29.296 44.4718 28.957 44.0647 28.906L44.0025 29.4021C44.1663 29.4226 44.2909 29.559 44.2967 29.7237L44.7964 29.7062ZM45.0577 37.189L44.7964 29.7062L44.2967 29.7237L44.558 37.2065L45.0577 37.189ZM41.4526 44.6835C43.7281 42.9903 45.1643 40.2413 45.0577 37.189L44.558 37.2065C44.6586 40.0878 43.3035 42.683 41.1541 44.2824L41.4526 44.6835ZM40.283 44.5119C40.5586 44.8823 41.0822 44.9591 41.4526 44.6835L41.1541 44.2824C41.0053 44.3931 40.7949 44.3623 40.6842 44.2134L40.283 44.5119ZM40.4546 43.3424C40.0843 43.6179 40.0075 44.1416 40.283 44.5119L40.6842 44.2134C40.5734 44.0646 40.6043 43.8542 40.7531 43.7435L40.4546 43.3424ZM43.387 37.2474C43.4736 39.7281 42.3084 41.963 40.4546 43.3424L40.7531 43.7435C42.733 42.2702 43.9793 39.8816 43.8867 37.2299L43.387 37.2474ZM43.1428 30.2563L43.387 37.2474L43.8867 37.2299L43.6425 30.2388L43.1428 30.2563ZM43.2439 30.4782L43.3559 30.4948L43.4295 30.0003L43.3176 29.9836L43.2439 30.4782ZM41.6234 30.2073C42.3005 30.3309 42.8561 30.4199 43.2436 30.4781L43.318 29.9837C42.9349 29.9261 42.3845 29.8379 41.7131 29.7155L41.6234 30.2073ZM36.4611 29.0182C38.425 29.5746 40.2704 29.9605 41.6234 30.2073L41.7131 29.7155C40.3707 29.4706 38.5417 29.088 36.5974 28.5372L36.4611 29.0182ZM30.5464 26.7872C32.4002 27.7315 34.5009 28.4629 36.4611 29.0182L36.5974 28.5372C34.6546 27.9868 32.5876 27.2658 30.7733 26.3416L30.5464 26.7872ZM26.01 23.1593C27.0303 24.6634 28.7063 25.8498 30.5464 26.7872L30.7733 26.3416C28.9646 25.4203 27.3751 24.2811 26.4238 22.8786L26.01 23.1593ZM26.2325 21.9984C25.8505 22.2575 25.7509 22.7773 26.01 23.1593L26.4238 22.8786C26.3197 22.7251 26.3597 22.5163 26.5132 22.4122L26.2325 21.9984Z" fill="white"/>
</svg>
