<svg width="67" height="67" viewBox="0 0 67 67" fill="none" xmlns="http://www.w3.org/2000/svg">
<rect y="2.23364" width="64" height="64" transform="rotate(-2 0 2.23364)" fill="#019FC4"/>
<path fill-rule="evenodd" clip-rule="evenodd" d="M36.2366 14.4099C36.1948 14.4048 36.1527 14.4033 36.1107 14.4053L15.3418 15.1305C14.9251 15.1451 14.599 15.4947 14.6136 15.9115L15.863 51.6905C15.8775 52.1072 16.2272 52.4333 16.6439 52.4187L38.3417 51.661L38.3429 51.661L38.3497 51.6607L38.3509 51.6607L51.8519 51.1892C52.2687 51.1746 52.5947 50.825 52.5802 50.4082L51.9815 33.2641C51.9382 32.0235 50.8971 31.0539 49.6577 31.0972L44.2747 31.2851L43.94 21.6982C43.9357 21.5774 43.9032 21.4638 43.8489 21.364C43.8228 21.3159 43.7911 21.2701 43.7539 21.2276C43.7371 21.2085 43.7192 21.19 43.7003 21.1723L43.6986 21.1707L36.6628 14.609L36.6471 14.5947C36.5281 14.4891 36.3842 14.4276 36.2366 14.4099ZM17.3458 50.8832L16.1491 16.6134L35.4178 15.9405L35.629 21.9884C35.6436 22.4051 35.9932 22.7312 36.41 22.7166L42.4571 22.5055L42.7655 31.3378L39.129 31.4648C37.8886 31.5081 36.9187 32.5482 36.962 33.7886L37.5343 50.1782L17.3458 50.8832ZM37.1119 21.1811L36.9643 16.9551L41.3374 21.0335L37.1119 21.1811ZM19.2706 20.7773C18.8538 20.7918 18.5278 21.1415 18.5423 21.5582C18.5569 21.975 18.9065 22.301 19.3233 22.2865L30.5042 21.896C30.921 21.8815 31.247 21.5318 31.2325 21.1151C31.2179 20.6983 30.8683 20.3723 30.4515 20.3868L19.2706 20.7773ZM19.4788 26.7403C19.0621 26.7548 18.736 27.1045 18.7506 27.5212C18.7651 27.938 19.1148 28.264 19.5315 28.2495L39.6572 27.5467C40.0739 27.5321 40.4 27.1825 40.3854 26.7657C40.3709 26.349 40.0212 26.0229 39.6045 26.0375L19.4788 26.7403ZM19.687 32.7035C19.2703 32.718 18.9442 33.0677 18.9588 33.4844C18.9734 33.9012 19.323 34.2272 19.7397 34.2127L33.9023 33.7181C34.319 33.7035 34.6451 33.3539 34.6305 32.9371C34.616 32.5204 34.2663 32.1943 33.8496 32.2089L19.687 32.7035ZM38.4712 33.7359C38.457 33.329 38.7748 32.9882 39.1817 32.974L43.5648 32.821L43.5716 32.8208L43.5741 32.8207L43.5815 32.8204L49.7104 32.6064C50.1168 32.5922 50.4581 32.9102 50.4723 33.3168L50.6043 37.0965L38.6032 37.5156L38.4712 33.7359ZM19.8953 38.6666C19.4785 38.6812 19.1525 39.0308 19.167 39.4476C19.1816 39.8643 19.5312 40.1904 19.948 40.1758L34.1105 39.6813C34.5273 39.6667 34.8533 39.3171 34.8388 38.9003C34.8242 38.4836 34.4746 38.1575 34.0578 38.1721L19.8953 38.6666ZM39.0435 50.1254L38.6559 39.0248L50.657 38.6057L51.0446 49.7063L39.0435 50.1254ZM40.0409 40.2021C39.6242 40.2167 39.2981 40.5663 39.3127 40.9831C39.3273 41.3998 39.6769 41.7259 40.0937 41.7113L41.8081 41.6514C42.2248 41.6369 42.5509 41.2872 42.5363 40.8705C42.5218 40.4537 42.1721 40.1277 41.7554 40.1422L40.0409 40.2021ZM43.8424 40.0694C43.4256 40.0839 43.0996 40.4336 43.1141 40.8503C43.1287 41.2671 43.4783 41.5931 43.8951 41.5786L45.6095 41.5187C46.0262 41.5041 46.3523 41.1545 46.3377 40.7377C46.3232 40.321 45.9735 39.9949 45.5568 40.0095L43.8424 40.0694ZM47.6439 39.9366C47.2272 39.9512 46.9011 40.3008 46.9157 40.7176C46.9302 41.1343 47.2799 41.4604 47.6966 41.4458L49.411 41.3859C49.8278 41.3714 50.1539 41.0217 50.1393 40.605C50.1247 40.1882 49.7751 39.8622 49.3583 39.8767L47.6439 39.9366ZM40.1581 43.5564C39.7413 43.571 39.4153 43.9206 39.4298 44.3374C39.4444 44.7541 39.794 45.0802 40.2108 45.0656L41.9252 45.0057C42.3419 44.9912 42.668 44.6415 42.6534 44.2248C42.6389 43.808 42.2892 43.482 41.8725 43.4965L40.1581 43.5564ZM43.9595 43.4237C43.5427 43.4382 43.2167 43.7879 43.2312 44.2046C43.2458 44.6214 43.5954 44.9474 44.0122 44.9329L45.7266 44.873C46.1434 44.8584 46.4694 44.5088 46.4549 44.092C46.4403 43.6753 46.0907 43.3492 45.6739 43.3638L43.9595 43.4237ZM47.7611 43.2909C47.3443 43.3055 47.0183 43.6551 47.0328 44.0719C47.0474 44.4886 47.397 44.8147 47.8138 44.8001L49.5282 44.7402C49.9449 44.7257 50.271 44.376 50.2564 43.9593C50.2419 43.5425 49.8922 43.2165 49.4755 43.231L47.7611 43.2909ZM20.1035 44.6298C19.6868 44.6444 19.3607 44.994 19.3753 45.4108C19.3898 45.8275 19.7395 46.1536 20.1562 46.139L34.3187 45.6444C34.7355 45.6299 35.0615 45.2802 35.047 44.8635C35.0324 44.4467 34.6828 44.1207 34.266 44.1352L20.1035 44.6298ZM40.2752 46.9105C39.8585 46.9251 39.5324 47.2747 39.547 47.6915C39.5615 48.1082 39.9112 48.4343 40.3279 48.4197L42.0423 48.3599C42.4591 48.3453 42.7851 47.9957 42.7706 47.5789C42.756 47.1622 42.4064 46.8361 41.9896 46.8507L40.2752 46.9105ZM44.0766 46.7778C43.6599 46.7923 43.3338 47.142 43.3484 47.5587C43.3629 47.9755 43.7126 48.3015 44.1293 48.287L45.8437 48.2271C46.2605 48.2126 46.5865 47.8629 46.572 47.4462C46.5574 47.0294 46.2078 46.7034 45.791 46.7179L44.0766 46.7778ZM47.8782 46.645C47.4614 46.6596 47.1354 47.0092 47.15 47.426C47.1645 47.8427 47.5141 48.1688 47.9309 48.1542L49.6453 48.0944C50.0621 48.0798 50.3881 47.7302 50.3736 47.3134C50.359 46.8967 50.0094 46.5706 49.5926 46.5852L47.8782 46.645Z" fill="white"/>
<path d="M36.1107 14.4053L36.1142 14.5052L36.1154 14.5052L36.1107 14.4053ZM36.2366 14.4099L36.2246 14.5092L36.2366 14.4099ZM14.6136 15.9115L14.5136 15.915L14.6136 15.9115ZM15.863 51.6905L15.9629 51.687L15.863 51.6905ZM16.6439 52.4187L16.6474 52.5187L16.6439 52.4187ZM38.3417 51.661L38.3382 51.5611L38.3417 51.661ZM38.3429 51.661L38.3464 51.7609L38.3472 51.7609L38.3429 51.661ZM38.3497 51.6607L38.3459 51.5608L38.3454 51.5608L38.3497 51.6607ZM38.3509 51.6607L38.3474 51.5607L38.3471 51.5607L38.3509 51.6607ZM51.8519 51.1892L51.8554 51.2891L51.8519 51.1892ZM49.6577 31.0972L49.6542 30.9972L49.6577 31.0972ZM44.2747 31.2851L44.1748 31.2886C44.1767 31.3438 44.223 31.387 44.2782 31.3851L44.2747 31.2851ZM43.94 21.6982L43.84 21.7017L43.94 21.6982ZM43.8489 21.364L43.761 21.4117L43.7611 21.4118L43.8489 21.364ZM43.7539 21.2276L43.6787 21.2935L43.6787 21.2935L43.7539 21.2276ZM43.7003 21.1723L43.632 21.2454L43.6321 21.2454L43.7003 21.1723ZM43.6986 21.1707L43.7668 21.0976L43.7668 21.0976L43.6986 21.1707ZM36.6628 14.609L36.731 14.5359L36.7302 14.5351L36.6628 14.609ZM36.6471 14.5947L36.7145 14.5208L36.7135 14.5199L36.6471 14.5947ZM16.1491 16.6134L16.1456 16.5135C16.0904 16.5154 16.0472 16.5617 16.0492 16.6169L16.1491 16.6134ZM17.3458 50.8832L17.2459 50.8867C17.2468 50.9132 17.2582 50.9382 17.2776 50.9563C17.297 50.9744 17.3228 50.9841 17.3493 50.9831L17.3458 50.8832ZM35.4178 15.9405L35.5178 15.937C35.5158 15.8818 35.4695 15.8386 35.4143 15.8406L35.4178 15.9405ZM35.629 21.9884L35.729 21.9849L35.629 21.9884ZM36.41 22.7166L36.4135 22.8166L36.41 22.7166ZM42.4571 22.5055L42.557 22.502C42.5561 22.4755 42.5447 22.4504 42.5253 22.4323C42.5059 22.4142 42.4801 22.4046 42.4536 22.4055L42.4571 22.5055ZM42.7655 31.3378L42.769 31.4378C42.8242 31.4359 42.8674 31.3895 42.8655 31.3344L42.7655 31.3378ZM36.962 33.7886L37.0619 33.7851L36.962 33.7886ZM37.5343 50.1782L37.5378 50.2781C37.593 50.2762 37.6362 50.2299 37.6343 50.1747L37.5343 50.1782ZM36.9643 16.9551L37.0325 16.882C37.0029 16.8544 36.9596 16.8474 36.9228 16.8641C36.886 16.8809 36.8629 16.9182 36.8644 16.9586L36.9643 16.9551ZM37.1119 21.1811L37.0119 21.1846C37.0139 21.2398 37.0602 21.283 37.1154 21.281L37.1119 21.1811ZM41.3374 21.0335L41.3409 21.1335C41.3813 21.1321 41.4169 21.1064 41.431 21.0686C41.4452 21.0307 41.4352 20.988 41.4056 20.9604L41.3374 21.0335ZM19.2706 20.7773L19.2671 20.6773L19.2706 20.7773ZM30.4515 20.3868L30.455 20.4868L30.4515 20.3868ZM19.4788 26.7403L19.4753 26.6404L19.4788 26.7403ZM19.5315 28.2495L19.535 28.3494L19.5315 28.2495ZM39.6572 27.5467L39.6537 27.4467L39.6572 27.5467ZM39.6045 26.0375L39.608 26.1374L39.6045 26.0375ZM19.687 32.7035L19.6905 32.8034L19.687 32.7035ZM33.8496 32.2089L33.8461 32.109L33.8496 32.2089ZM39.1817 32.974L39.1782 32.8741L39.1817 32.974ZM38.4712 33.7359L38.3713 33.7394L38.4712 33.7359ZM43.5648 32.821L43.5621 32.721L43.5613 32.721L43.5648 32.821ZM43.5716 32.8208L43.5744 32.9207L43.5751 32.9207L43.5716 32.8208ZM43.5741 32.8207L43.5776 32.9206L43.5782 32.9206L43.5741 32.8207ZM43.5815 32.8204L43.578 32.7204L43.5773 32.7205L43.5815 32.8204ZM49.7104 32.6064L49.7139 32.7063L49.7104 32.6064ZM50.6043 37.0965L50.6078 37.1964C50.663 37.1945 50.7061 37.1482 50.7042 37.093L50.6043 37.0965ZM38.6032 37.5156L38.5032 37.5191C38.5052 37.5743 38.5515 37.6174 38.6067 37.6155L38.6032 37.5156ZM38.6559 39.0248L38.6524 38.9248C38.5972 38.9267 38.554 38.9731 38.5559 39.0283L38.6559 39.0248ZM39.0435 50.1254L38.9436 50.1289C38.9445 50.1554 38.9559 50.1805 38.9753 50.1986C38.9947 50.2167 39.0205 50.2263 39.047 50.2254L39.0435 50.1254ZM50.657 38.6057L50.7569 38.6022C50.756 38.5757 50.7446 38.5506 50.7252 38.5325C50.7058 38.5145 50.68 38.5048 50.6535 38.5057L50.657 38.6057ZM51.0446 49.7063L51.0481 49.8063C51.1033 49.8044 51.1465 49.7581 51.1446 49.7029L51.0446 49.7063ZM47.6966 41.4458L47.7001 41.5457L47.6966 41.4458ZM49.411 41.3859L49.4076 41.286L49.411 41.3859ZM44.0122 44.9329L44.0157 45.0328L44.0122 44.9329ZM45.7266 44.873L45.7231 44.773L45.7266 44.873ZM47.7611 43.2909L47.7646 43.3908L47.7611 43.2909ZM47.8138 44.8001L47.8103 44.7002L47.8138 44.8001ZM49.5282 44.7402L49.5317 44.8402L49.5282 44.7402ZM49.4755 43.231L49.472 43.1311L49.4755 43.231ZM20.1035 44.6298L20.107 44.7297L20.1035 44.6298ZM20.1562 46.139L20.1597 46.2389L20.1562 46.139ZM34.3187 45.6444L34.3153 45.5445L34.3187 45.6444ZM34.266 44.1352L34.2626 44.0353L34.266 44.1352ZM40.2752 46.9105L40.2787 47.0105L40.2752 46.9105ZM41.9896 46.8507L41.9861 46.7507L41.9896 46.8507ZM47.9309 48.1542L47.9344 48.2542L47.9309 48.1542ZM49.6453 48.0944L49.6418 47.9944L49.6453 48.0944ZM36.1154 14.5052C36.1518 14.5035 36.1884 14.5048 36.2246 14.5092L36.2485 14.3106C36.2012 14.3049 36.1535 14.3032 36.1061 14.3054L36.1154 14.5052ZM15.3453 15.2305L36.1142 14.5052L36.1072 14.3053L15.3383 15.0306L15.3453 15.2305ZM14.7135 15.908C14.7009 15.5464 14.9837 15.2431 15.3453 15.2305L15.3383 15.0306C14.8664 15.0471 14.4971 15.443 14.5136 15.915L14.7135 15.908ZM15.9629 51.687L14.7135 15.908L14.5136 15.915L15.7631 51.694L15.9629 51.687ZM16.6405 52.3188C16.2789 52.3314 15.9756 52.0486 15.9629 51.687L15.7631 51.694C15.7795 52.1659 16.1755 52.5352 16.6474 52.5187L16.6405 52.3188ZM38.3382 51.5611L16.6405 52.3188L16.6474 52.5187L38.3452 51.761L38.3382 51.5611ZM38.3394 51.5611L38.3382 51.5611L38.3452 51.761L38.3464 51.7609L38.3394 51.5611ZM38.3454 51.5608L38.3386 51.5611L38.3472 51.7609L38.354 51.7606L38.3454 51.5608ZM38.3471 51.5607L38.3459 51.5608L38.3535 51.7606L38.3547 51.7606L38.3471 51.5607ZM51.8484 51.0893L38.3474 51.5607L38.3544 51.7606L51.8554 51.2891L51.8484 51.0893ZM52.4802 50.4117C52.4929 50.7733 52.21 51.0766 51.8484 51.0893L51.8554 51.2891C52.3274 51.2726 52.6966 50.8767 52.6801 50.4047L52.4802 50.4117ZM51.8816 33.2676L52.4802 50.4117L52.6801 50.4047L52.0814 33.2606L51.8816 33.2676ZM49.6612 31.1971C50.8454 31.1557 51.8402 32.0822 51.8816 33.2676L52.0814 33.2606C52.0362 31.9648 50.9488 30.952 49.6542 30.9972L49.6612 31.1971ZM44.2782 31.3851L49.6612 31.1971L49.6542 30.9972L44.2712 31.1852L44.2782 31.3851ZM43.84 21.7017L44.1748 31.2886L44.3747 31.2816L44.0399 21.6947L43.84 21.7017ZM43.7611 21.4118C43.8082 21.4983 43.8364 21.5968 43.84 21.7017L44.0399 21.6947C44.0351 21.5581 43.9983 21.4294 43.9368 21.3162L43.7611 21.4118ZM43.6787 21.2935C43.7109 21.3303 43.7384 21.37 43.761 21.4117L43.9368 21.3162C43.9071 21.2617 43.8712 21.2098 43.8292 21.1618L43.6787 21.2935ZM43.6321 21.2454C43.6486 21.2608 43.6641 21.2769 43.6787 21.2935L43.8292 21.1618C43.8102 21.1401 43.7899 21.1191 43.7685 21.0992L43.6321 21.2454ZM43.6303 21.2438L43.632 21.2454L43.7685 21.0992L43.7668 21.0976L43.6303 21.2438ZM36.5946 14.6821L43.6303 21.2438L43.7668 21.0976L36.731 14.5359L36.5946 14.6821ZM36.5797 14.6686L36.5954 14.6829L36.7302 14.5351L36.7145 14.5208L36.5797 14.6686ZM36.2246 14.5092C36.3527 14.5245 36.4775 14.5778 36.5807 14.6695L36.7135 14.5199C36.5788 14.4003 36.4157 14.3307 36.2485 14.3106L36.2246 14.5092ZM16.0492 16.6169L17.2459 50.8867L17.4458 50.8797L16.2491 16.6099L16.0492 16.6169ZM35.4143 15.8406L16.1456 16.5135L16.1526 16.7133L35.4213 16.0405L35.4143 15.8406ZM35.729 21.9849L35.5178 15.937L35.3179 15.944L35.5291 21.9919L35.729 21.9849ZM36.4065 22.6167C36.0449 22.6293 35.7416 22.3465 35.729 21.9849L35.5291 21.9919C35.5456 22.4638 35.9415 22.8331 36.4135 22.8166L36.4065 22.6167ZM42.4536 22.4055L36.4065 22.6167L36.4135 22.8166L42.4606 22.6054L42.4536 22.4055ZM42.8655 31.3344L42.557 22.502L42.3572 22.509L42.6656 31.3413L42.8655 31.3344ZM39.1325 31.5648L42.769 31.4378L42.7621 31.2379L39.1255 31.3649L39.1325 31.5648ZM37.0619 33.7851C37.0205 32.5999 37.9472 31.6062 39.1325 31.5648L39.1255 31.3649C37.8299 31.4101 36.8168 32.4965 36.8621 33.7921L37.0619 33.7851ZM37.6343 50.1747L37.0619 33.7851L36.8621 33.7921L37.4344 50.1817L37.6343 50.1747ZM17.3493 50.9831L37.5378 50.2781L37.5308 50.0783L17.3423 50.7833L17.3493 50.9831ZM36.8644 16.9586L37.0119 21.1846L37.2118 21.1776L37.0642 16.9516L36.8644 16.9586ZM41.4056 20.9604L37.0325 16.882L36.8961 17.0283L41.2692 21.1067L41.4056 20.9604ZM37.1154 21.281L41.3409 21.1335L41.3339 20.9336L37.1084 21.0812L37.1154 21.281ZM18.6423 21.5547C18.6296 21.1932 18.9125 20.8899 19.2741 20.8772L19.2671 20.6773C18.7951 20.6938 18.4259 21.0898 18.4424 21.5617L18.6423 21.5547ZM19.3198 22.1865C18.9582 22.1992 18.6549 21.9163 18.6423 21.5547L18.4424 21.5617C18.4589 22.0337 18.8548 22.4029 19.3268 22.3864L19.3198 22.1865ZM30.5007 21.7961L19.3198 22.1865L19.3268 22.3864L30.5077 21.996L30.5007 21.7961ZM31.1325 21.1186C31.1451 21.4801 30.8623 21.7835 30.5007 21.7961L30.5077 21.996C30.9797 21.9795 31.3489 21.5835 31.3324 21.1116L31.1325 21.1186ZM30.455 20.4868C30.8166 20.4742 31.1199 20.757 31.1325 21.1186L31.3324 21.1116C31.3159 20.6396 30.92 20.2704 30.448 20.2869L30.455 20.4868ZM19.2741 20.8772L30.455 20.4868L30.448 20.2869L19.2671 20.6773L19.2741 20.8772ZM18.8505 27.5177C18.8379 27.1562 19.1207 26.8529 19.4823 26.8402L19.4753 26.6404C19.0034 26.6568 18.6341 27.0528 18.6506 27.5247L18.8505 27.5177ZM19.528 28.1495C19.1665 28.1622 18.8631 27.8793 18.8505 27.5177L18.6506 27.5247C18.6671 27.9967 19.0631 28.3659 19.535 28.3494L19.528 28.1495ZM39.6537 27.4467L19.528 28.1495L19.535 28.3494L39.6607 27.6466L39.6537 27.4467ZM40.2855 26.7692C40.2981 27.1308 40.0153 27.4341 39.6537 27.4467L39.6607 27.6466C40.1326 27.6301 40.5019 27.2342 40.4854 26.7622L40.2855 26.7692ZM39.608 26.1374C39.9695 26.1248 40.2729 26.4077 40.2855 26.7692L40.4854 26.7622C40.4689 26.2903 40.0729 25.9211 39.601 25.9375L39.608 26.1374ZM19.4823 26.8402L39.608 26.1374L39.601 25.9375L19.4753 26.6404L19.4823 26.8402ZM19.0587 33.4809C19.0461 33.1194 19.329 32.816 19.6905 32.8034L19.6836 32.6035C19.2116 32.62 18.8424 33.016 18.8589 33.4879L19.0587 33.4809ZM19.7363 34.1127C19.3747 34.1253 19.0714 33.8425 19.0587 33.4809L18.8589 33.4879C18.8753 33.9598 19.2713 34.3291 19.7432 34.3126L19.7363 34.1127ZM33.8988 33.6182L19.7363 34.1127L19.7432 34.3126L33.9058 33.818L33.8988 33.6182ZM34.5306 32.9406C34.5432 33.3022 34.2603 33.6055 33.8988 33.6182L33.9058 33.818C34.3777 33.8016 34.7469 33.4056 34.7305 32.9337L34.5306 32.9406ZM33.8531 32.3088C34.2146 32.2962 34.518 32.5791 34.5306 32.9406L34.7305 32.9337C34.714 32.4617 34.318 32.0925 33.8461 32.109L33.8531 32.3088ZM19.6905 32.8034L33.8531 32.3088L33.8461 32.109L19.6836 32.6035L19.6905 32.8034ZM39.1782 32.8741C38.7161 32.8902 38.3551 33.2773 38.3713 33.7394L38.5711 33.7324C38.5589 33.3807 38.8335 33.0863 39.1852 33.074L39.1782 32.8741ZM43.5613 32.721L39.1782 32.8741L39.1852 33.074L43.5683 32.9209L43.5613 32.721ZM43.5689 32.7208L43.5621 32.721L43.5676 32.9209L43.5744 32.9207L43.5689 32.7208ZM43.5706 32.7208L43.5681 32.7208L43.5751 32.9207L43.5776 32.9206L43.5706 32.7208ZM43.5773 32.7205L43.5699 32.7208L43.5782 32.9206L43.5856 32.9203L43.5773 32.7205ZM49.7069 32.5064L43.578 32.7204L43.585 32.9203L49.7139 32.7063L49.7069 32.5064ZM50.5722 33.3134C50.5561 32.8515 50.1685 32.4903 49.7069 32.5064L49.7139 32.7063C50.0651 32.694 50.3601 32.9689 50.3724 33.3203L50.5722 33.3134ZM50.7042 37.093L50.5722 33.3134L50.3724 33.3203L50.5043 37.1L50.7042 37.093ZM38.6067 37.6155L50.6078 37.1964L50.6008 36.9965L38.5997 37.4156L38.6067 37.6155ZM38.3713 33.7394L38.5032 37.5191L38.7031 37.5121L38.5711 33.7324L38.3713 33.7394ZM19.267 39.4441C19.2544 39.0825 19.5372 38.7792 19.8988 38.7666L19.8918 38.5667C19.4198 38.5832 19.0506 38.9791 19.0671 39.4511L19.267 39.4441ZM19.9445 40.0759C19.5829 40.0885 19.2796 39.8057 19.267 39.4441L19.0671 39.4511C19.0836 39.923 19.4795 40.2922 19.9515 40.2758L19.9445 40.0759ZM34.107 39.5813L19.9445 40.0759L19.9515 40.2758L34.114 39.7812L34.107 39.5813ZM34.7388 38.9038C34.7514 39.2654 34.4686 39.5687 34.107 39.5813L34.114 39.7812C34.5859 39.7647 34.9552 39.3688 34.9387 38.8968L34.7388 38.9038ZM34.0613 38.272C34.4229 38.2594 34.7262 38.5422 34.7388 38.9038L34.9387 38.8968C34.9222 38.4249 34.5263 38.0556 34.0543 38.0721L34.0613 38.272ZM19.8988 38.7666L34.0613 38.272L34.0543 38.0721L19.8918 38.5667L19.8988 38.7666ZM38.5559 39.0283L38.9436 50.1289L39.1435 50.1219L38.7558 39.0213L38.5559 39.0283ZM50.6535 38.5057L38.6524 38.9248L38.6594 39.1247L50.6605 38.7056L50.6535 38.5057ZM51.1446 49.7029L50.7569 38.6022L50.557 38.6092L50.9447 49.7098L51.1446 49.7029ZM39.047 50.2254L51.0481 49.8063L51.0411 49.6064L39.04 50.0255L39.047 50.2254ZM39.4126 40.9796C39.4 40.618 39.6829 40.3147 40.0444 40.3021L40.0375 40.1022C39.5655 40.1187 39.1963 40.5146 39.2128 40.9865L39.4126 40.9796ZM40.0902 41.6114C39.7286 41.624 39.4253 41.3411 39.4126 40.9796L39.2128 40.9865C39.2292 41.4585 39.6252 41.8277 40.0971 41.8112L40.0902 41.6114ZM41.8046 41.5515L40.0902 41.6114L40.0971 41.8112L41.8116 41.7514L41.8046 41.5515ZM42.4364 40.874C42.449 41.2355 42.1661 41.5389 41.8046 41.5515L41.8116 41.7514C42.2835 41.7349 42.6527 41.3389 42.6362 40.867L42.4364 40.874ZM41.7588 40.2422C42.1204 40.2296 42.4237 40.5124 42.4364 40.874L42.6362 40.867C42.6198 40.395 42.2238 40.0258 41.7519 40.0423L41.7588 40.2422ZM40.0444 40.3021L41.7588 40.2422L41.7519 40.0423L40.0375 40.1022L40.0444 40.3021ZM43.2141 40.8468C43.2014 40.4853 43.4843 40.1819 43.8459 40.1693L43.8389 39.9694C43.3669 39.9859 42.9977 40.3819 43.0142 40.8538L43.2141 40.8468ZM43.8916 41.4786C43.53 41.4912 43.2267 41.2084 43.2141 40.8468L43.0142 40.8538C43.0307 41.3257 43.4266 41.695 43.8986 41.6785L43.8916 41.4786ZM45.606 41.4188L43.8916 41.4786L43.8986 41.6785L45.613 41.6186L45.606 41.4188ZM46.2378 40.7412C46.2504 41.1028 45.9675 41.4061 45.606 41.4188L45.613 41.6186C46.0849 41.6021 46.4541 41.2062 46.4377 40.7343L46.2378 40.7412ZM45.5603 40.1094C45.9218 40.0968 46.2252 40.3797 46.2378 40.7412L46.4377 40.7343C46.4212 40.2623 46.0252 39.8931 45.5533 39.9096L45.5603 40.1094ZM43.8459 40.1693L45.5603 40.1094L45.5533 39.9096L43.8389 39.9694L43.8459 40.1693ZM47.0156 40.7141C47.003 40.3525 47.2859 40.0492 47.6474 40.0365L47.6404 39.8367C47.1685 39.8532 46.7993 40.2491 46.8158 40.721L47.0156 40.7141ZM47.6931 41.3459C47.3316 41.3585 47.0283 41.0756 47.0156 40.7141L46.8158 40.721C46.8322 41.193 47.2282 41.5622 47.7001 41.5457L47.6931 41.3459ZM49.4076 41.286L47.6931 41.3459L47.7001 41.5457L49.4145 41.4859L49.4076 41.286ZM50.0394 40.6085C50.052 40.97 49.7691 41.2734 49.4076 41.286L49.4145 41.4859C49.8865 41.4694 50.2557 41.0734 50.2392 40.6015L50.0394 40.6085ZM49.3618 39.9767C49.7234 39.9641 50.0267 40.2469 50.0394 40.6085L50.2392 40.6015C50.2228 40.1295 49.8268 39.7603 49.3549 39.7768L49.3618 39.9767ZM47.6474 40.0365L49.3618 39.9767L49.3549 39.7768L47.6404 39.8367L47.6474 40.0365ZM39.5298 44.3339C39.5172 43.9723 39.8 43.669 40.1616 43.6563L40.1546 43.4565C39.6826 43.4729 39.3134 43.8689 39.3299 44.3408L39.5298 44.3339ZM40.2073 44.9657C39.8457 44.9783 39.5424 44.6954 39.5298 44.3339L39.3299 44.3408C39.3464 44.8128 39.7423 45.182 40.2143 45.1655L40.2073 44.9657ZM41.9217 44.9058L40.2073 44.9657L40.2143 45.1655L41.9287 45.1057L41.9217 44.9058ZM42.5535 44.2283C42.5661 44.5898 42.2833 44.8932 41.9217 44.9058L41.9287 45.1057C42.4006 45.0892 42.7699 44.6932 42.7534 44.2213L42.5535 44.2283ZM41.876 43.5965C42.2375 43.5839 42.5409 43.8667 42.5535 44.2283L42.7534 44.2213C42.7369 43.7493 42.341 43.3801 41.869 43.3966L41.876 43.5965ZM40.1616 43.6563L41.876 43.5965L41.869 43.3966L40.1546 43.4565L40.1616 43.6563ZM43.3312 44.2011C43.3186 43.8396 43.6014 43.5362 43.963 43.5236L43.956 43.3237C43.4841 43.3402 43.1148 43.7362 43.1313 44.2081L43.3312 44.2011ZM44.0087 44.8329C43.6471 44.8455 43.3438 44.5627 43.3312 44.2011L43.1313 44.2081C43.1478 44.68 43.5437 45.0493 44.0157 45.0328L44.0087 44.8329ZM45.7231 44.773L44.0087 44.8329L44.0157 45.0328L45.7301 44.9729L45.7231 44.773ZM46.3549 44.0955C46.3675 44.4571 46.0847 44.7604 45.7231 44.773L45.7301 44.9729C46.202 44.9564 46.5713 44.5605 46.5548 44.0885L46.3549 44.0955ZM45.6774 43.4637C46.039 43.4511 46.3423 43.734 46.3549 44.0955L46.5548 44.0885C46.5383 43.6166 46.1424 43.2474 45.6704 43.2638L45.6774 43.4637ZM43.963 43.5236L45.6774 43.4637L45.6704 43.2638L43.956 43.3237L43.963 43.5236ZM47.1328 44.0684C47.1201 43.7068 47.403 43.4035 47.7646 43.3908L47.7576 43.191C47.2856 43.2074 46.9164 43.6034 46.9329 44.0753L47.1328 44.0684ZM47.8103 44.7002C47.4487 44.7128 47.1454 44.4299 47.1328 44.0684L46.9329 44.0753C46.9494 44.5473 47.3453 44.9165 47.8173 44.9L47.8103 44.7002ZM49.5247 44.6403L47.8103 44.7002L47.8173 44.9L49.5317 44.8402L49.5247 44.6403ZM50.1565 43.9628C50.1691 44.3243 49.8863 44.6277 49.5247 44.6403L49.5317 44.8402C50.0036 44.8237 50.3729 44.4277 50.3564 43.9558L50.1565 43.9628ZM49.479 43.331C49.8405 43.3183 50.1439 43.6012 50.1565 43.9628L50.3564 43.9558C50.3399 43.4838 49.9439 43.1146 49.472 43.1311L49.479 43.331ZM47.7646 43.3908L49.479 43.331L49.472 43.1311L47.7576 43.191L47.7646 43.3908ZM19.4752 45.4073C19.4626 45.0457 19.7455 44.7424 20.107 44.7297L20.1 44.5299C19.6281 44.5463 19.2589 44.9423 19.2753 45.4142L19.4752 45.4073ZM20.1527 46.0391C19.7912 46.0517 19.4878 45.7688 19.4752 45.4073L19.2753 45.4142C19.2918 45.8862 19.6878 46.2554 20.1597 46.2389L20.1527 46.0391ZM34.3153 45.5445L20.1527 46.0391L20.1597 46.2389L34.3222 45.7444L34.3153 45.5445ZM34.9471 44.867C34.9597 45.2285 34.6768 45.5319 34.3153 45.5445L34.3222 45.7444C34.7942 45.7279 35.1634 45.3319 35.1469 44.86L34.9471 44.867ZM34.2695 44.2352C34.6311 44.2226 34.9344 44.5054 34.9471 44.867L35.1469 44.86C35.1305 44.388 34.7345 44.0188 34.2626 44.0353L34.2695 44.2352ZM20.107 44.7297L34.2695 44.2352L34.2626 44.0353L20.1 44.5299L20.107 44.7297ZM39.6469 47.688C39.6343 47.3264 39.9171 47.0231 40.2787 47.0105L40.2717 46.8106C39.7998 46.8271 39.4305 47.223 39.447 47.695L39.6469 47.688ZM40.3244 48.3198C39.9629 48.3324 39.6595 48.0496 39.6469 47.688L39.447 47.695C39.4635 48.1669 39.8595 48.5361 40.3314 48.5197L40.3244 48.3198ZM42.0388 48.2599L40.3244 48.3198L40.3314 48.5197L42.0458 48.4598L42.0388 48.2599ZM42.6706 47.5824C42.6833 47.944 42.4004 48.2473 42.0388 48.2599L42.0458 48.4598C42.5178 48.4433 42.887 48.0474 42.8705 47.5754L42.6706 47.5824ZM41.9931 46.9506C42.3547 46.938 42.658 47.2208 42.6706 47.5824L42.8705 47.5754C42.854 47.1035 42.4581 46.7342 41.9861 46.7507L41.9931 46.9506ZM40.2787 47.0105L41.9931 46.9506L41.9861 46.7507L40.2717 46.8106L40.2787 47.0105ZM43.4483 47.5552C43.4357 47.1937 43.7186 46.8903 44.0801 46.8777L44.0731 46.6778C43.6012 46.6943 43.232 47.0903 43.2484 47.5622L43.4483 47.5552ZM44.1258 48.187C43.7643 48.1997 43.4609 47.9168 43.4483 47.5552L43.2484 47.5622C43.2649 48.0342 43.6609 48.4034 44.1328 48.3869L44.1258 48.187ZM45.8402 48.1272L44.1258 48.187L44.1328 48.3869L45.8472 48.327L45.8402 48.1272ZM46.472 47.4497C46.4847 47.8112 46.2018 48.1145 45.8402 48.1272L45.8472 48.327C46.3192 48.3106 46.6884 47.9146 46.6719 47.4427L46.472 47.4497ZM45.7945 46.8179C46.1561 46.8052 46.4594 47.0881 46.472 47.4497L46.6719 47.4427C46.6554 46.9707 46.2595 46.6015 45.7875 46.618L45.7945 46.8179ZM44.0801 46.8777L45.7945 46.8179L45.7875 46.618L44.0731 46.6778L44.0801 46.8777ZM47.2499 47.4225C47.2373 47.0609 47.5201 46.7576 47.8817 46.745L47.8747 46.5451C47.4028 46.5616 47.0335 46.9575 47.05 47.4295L47.2499 47.4225ZM47.9274 48.0543C47.5659 48.0669 47.2625 47.784 47.2499 47.4225L47.05 47.4295C47.0665 47.9014 47.4624 48.2706 47.9344 48.2542L47.9274 48.0543ZM49.6418 47.9944L47.9274 48.0543L47.9344 48.2542L49.6488 48.1943L49.6418 47.9944ZM50.2736 47.3169C50.2862 47.6785 50.0034 47.9818 49.6418 47.9944L49.6488 48.1943C50.1208 48.1778 50.49 47.7819 50.4735 47.3099L50.2736 47.3169ZM49.5961 46.6851C49.9577 46.6725 50.261 46.9553 50.2736 47.3169L50.4735 47.3099C50.457 46.838 50.0611 46.4687 49.5891 46.4852L49.5961 46.6851ZM47.8817 46.745L49.5961 46.6851L49.5891 46.4852L47.8747 46.5451L47.8817 46.745Z" fill="#019FC4"/>
</svg>
