<svg width="161" height="107" viewBox="0 0 161 107" fill="none" xmlns="http://www.w3.org/2000/svg">
<path d="M8.05891 72.2222L0.653809 91.3323H5.46332L7.05109 87.2078H14.539L16.1594 91.3323H20.9499L13.5625 72.2222H8.05891ZM13.1767 83.5688H8.41205L10.7944 77.4209L13.1767 83.5688Z" fill="white"/>
<path d="M27.2726 72.2222H22.6736V91.3323H39.2766V87.6974H27.2726V72.2222Z" fill="white"/>
<path d="M46.1355 72.2222H41.5352V91.3323H58.1396V87.6974H46.1355V72.2222Z" fill="white"/>
<path d="M62.9709 75.8571H68.9648V91.3323H73.5638V75.8571H79.5754V72.2222H62.9709V75.8571Z" fill="white"/>
<path d="M100.153 80.8097V75.0085L96.5385 72.2222H82.2539V91.3323H86.8529V83.5947H91.9014L95.3853 91.3323H100.284L96.7205 83.4451L100.153 80.8097ZM86.8529 75.8571H94.2824L95.5537 76.8348V78.982L94.2824 79.9598H86.8529V75.8571Z" fill="white"/>
<path d="M109.055 72.2222L101.649 91.3323H106.453L108.041 87.2078H115.531L117.151 91.3323H121.941L114.554 72.2222H109.055ZM114.172 83.5729H109.408L111.79 77.425L114.172 83.5729Z" fill="white"/>
<path d="M123.458 72.2222V91.3323H137.736L141.359 88.5473V75.0085L137.736 72.2222H123.458ZM128.059 87.6974V75.8571H135.488L136.758 76.8348V86.7196L135.488 87.6974H128.059Z" fill="white"/>
<path d="M160.625 75.8571V72.2222H144.021V91.3323H160.625V87.6974H148.621V83.5947H157.985V79.9598H148.621V75.8571H160.625Z" fill="white"/>
<path d="M59.862 97.7563L58.2375 99.0061V105.079L59.862 106.33H64.643L66.2674 105.079V103.419H64.2043V104.255L63.6338 104.698H60.8712L60.3075 104.261V99.8247L60.878 99.3814H63.6338L64.2043 99.8247V100.666H66.2674V99.0061L64.643 97.7563H59.862Z" fill="#019FC4"/>
<path d="M69.0872 97.7549L67.4573 99.0046V105.079L69.0872 106.329H73.8681L75.498 105.079V99.0046L73.8681 97.7549H69.0872ZM69.5259 104.26V99.8246L70.0963 99.3867H72.8603L73.4294 99.8246V104.26L72.8603 104.698H70.0963L69.5259 104.26Z" fill="#019FC4"/>
<path d="M82.6545 103.585L79.5794 97.7563H76.6877V106.33H78.7509V100.509L81.8422 106.33H84.719V97.7563H82.6545V103.585Z" fill="#019FC4"/>
<path d="M87.5386 97.7563L85.9128 99.0061V101.609L87.5386 102.859H91.3173L91.8877 103.302V104.255L91.3105 104.698H88.5465L87.9774 104.261V103.541H85.9128V105.079L87.5386 106.33H92.3196L93.9441 105.079V102.476L92.3196 101.227H88.5478L87.9841 100.789V99.8247L88.5546 99.3814H91.3105L91.8809 99.8247V100.544H93.9441V99.0061L92.3196 97.7563H87.5386Z" fill="#019FC4"/>
<path d="M95.1394 99.3868H97.8287V106.33H99.8919V99.3868H102.588V97.7563H95.1394V99.3868Z" fill="#019FC4"/>
<path d="M111.821 101.609V99.0046L110.191 97.7549H103.784V106.322H105.849V102.852H108.113L109.676 106.322H111.886L110.288 102.786L111.821 101.609ZM105.854 99.3867H109.187L109.758 99.8246V100.789L109.187 101.227H105.854V99.3867Z" fill="#019FC4"/>
<path d="M118.99 104.255L118.413 104.698H115.65L115.086 104.261V97.7563H113.015V105.079L114.641 106.33H119.422L121.046 105.079V97.7563H118.983L118.99 104.255Z" fill="#019FC4"/>
<path d="M123.866 97.7563L122.242 99.0061V105.079L123.866 106.33H128.647L130.272 105.079V103.419H128.208V104.255L127.638 104.698H124.875L124.312 104.261V99.8247L124.882 99.3814H127.638L128.208 99.8247V100.666H130.272V99.0061L128.647 97.7563H123.866Z" fill="#019FC4"/>
<path d="M131.467 99.3868H134.156V106.33H136.219V99.3868H138.917V97.7563H131.467V99.3868Z" fill="#019FC4"/>
<path d="M142.18 97.7549H140.117V106.329H142.18V97.7549Z" fill="#019FC4"/>
<path d="M145.008 97.7549L143.378 99.0046V105.079L145.008 106.329H149.789L151.419 105.079V99.0046L149.789 97.7549H145.008ZM145.447 104.26V99.8246L146.017 99.3867H148.78L149.351 99.8246V104.26L148.78 104.698H146.017L145.447 104.26Z" fill="#019FC4"/>
<path d="M158.576 97.7563V103.585L155.499 97.7563H152.609V106.33H154.672V100.509L157.763 106.33H160.64V97.7563H158.576Z" fill="#019FC4"/>
<path d="M51.2643 44.3954V15.1448L25.9631 0.519531L0.661865 15.1448V44.3954L25.9631 59.0207L51.2643 44.3954Z" fill="#38FF7D"/>
<path d="M25.9522 5.53906L5.0354 17.6717V41.9058L12.5858 37.5542V33.5862H39.3159V37.5501H39.3566L46.8948 41.9017V17.6853L25.9522 5.53906ZM12.5831 25.9669V22.0437L25.9509 14.3102L39.3159 22.0409V25.9669H12.5831Z" fill="#38FF7D"/>
<path d="M160.632 44.3954V15.1448L135.331 0.519531L110.03 15.1448V44.3954L135.331 59.0207L160.632 44.3954Z" fill="#38FF7D"/>
<path d="M135.313 5.5332L156.278 17.6931L148.716 22.0582L135.313 14.307L121.937 22.0433V37.5456L135.315 45.2846L148.716 37.5334L156.28 41.8972L135.315 54.0135L114.385 41.9108V17.6727L135.313 5.5332Z" fill="#38FF7D"/>
<path d="M105.948 44.3954V15.1448L80.6469 0.519531L55.3457 15.1448V44.3954L80.6469 59.0207L105.948 44.3954Z" fill="#38FF7D"/>
<path d="M84.4106 16.4897V51.8637C83.1515 52.579 81.9128 53.2861 80.6497 54.0055L76.8575 51.8297V16.4734L67.2439 22.0488L59.6826 17.685L80.647 5.53467L101.611 17.6918L94.0514 22.057L84.4106 16.4897Z" fill="#38FF7D"/>
<path d="M12.5805 37.5499V33.5859H5.03003V41.9056L12.5805 37.5499Z" fill="white"/>
<path d="M51.2589 44.3928V15.1368L25.9522 0.508789L0.646973 15.1368V44.3928L25.9522 59.0208L51.2589 44.3928Z" fill="#019FC4"/>
<path d="M160.647 44.3928V15.1368L135.342 0.508789L110.035 15.1368V44.3928L135.342 59.0208L160.647 44.3928Z" fill="#019FC4"/>
<path d="M135.324 5.52393L156.291 17.6851L148.73 22.0517L135.323 14.3005L121.937 22.0367V37.5391L135.319 45.2794L148.722 37.5282L156.287 41.8934L135.319 54.0124L114.384 41.9097V17.6647L135.324 5.52393Z" fill="white"/>
<path d="M105.952 44.3928V15.1368L80.6471 0.508789L55.3418 15.1368V44.3928L80.6471 59.0208L105.952 44.3928Z" fill="#019FC4"/>
<path d="M84.4106 16.4818V51.8626L80.6469 54.0044L76.8534 51.8286V16.4723L67.2384 22.0477L59.6758 17.6825L80.6469 5.52539L101.615 17.6852L94.0541 22.0504L84.4106 16.4818Z" fill="white"/>
<path d="M25.9413 5.5293C18.941 9.58712 11.966 13.6318 5.01636 17.6633V41.9015L12.5681 46.2856V33.5805H39.3077C39.3186 37.8169 39.3285 42.0519 39.3376 46.2856L46.888 41.9015V17.6769L25.9413 5.5293ZM39.3077 25.9612H12.5709V22.0366L25.94 14.3018C30.3959 16.8773 34.8518 19.4547 39.3077 22.0339V25.9612Z" fill="white"/>
</svg>
