<svg width="200" height="32" viewBox="0 0 200 32" fill="none" xmlns="http://www.w3.org/2000/svg">
<path d="M26.4131 23.75V8.24998L13.2065 0.5L0 8.24998V23.75L13.2065 31.5L26.4131 23.75Z" fill="#019FC4"/>
<path d="M83.5009 23.75V8.24998L70.2944 0.5L57.0879 8.24998V23.75L70.2944 31.5L83.5009 23.75Z" fill="#019FC4"/>
<path d="M70.2845 3.15771L81.2275 9.60079L77.2811 11.9139L70.2845 7.80624L63.3014 11.9065V20.1169L70.2845 24.2184L77.2799 20.1107L81.2275 22.4226L70.2845 28.8434L59.3599 22.4337V9.58964L70.2845 3.15771Z" fill="white"/>
<path d="M54.957 23.75V8.24998L41.7505 0.5L28.5439 8.24998V23.75L41.7505 31.5L54.957 23.75Z" fill="#019FC4"/>
<path d="M43.7146 8.96343V27.7085L41.7518 28.8434L39.7719 27.6911V8.95971L34.754 11.9139L30.8064 9.60079L41.7505 3.15771L52.6935 9.60079L48.7471 11.9139L43.7146 8.96343Z" fill="white"/>
<path d="M13.2042 3.16016L2.2832 9.5958V22.4374L6.2247 24.7604V18.0203H20.1801L20.1947 24.7517L24.1362 22.4287V9.59456L13.2042 3.16016ZM20.1801 13.9856H6.22591V11.9065L13.203 7.80868C15.5287 9.17254 17.8544 10.5381 20.1801 11.9052V13.9856Z" fill="white"/>
<path d="M98.7359 4.5083L93.8215 17.3858H97.013L98.0674 14.6073H103.038L104.113 17.3858H107.294L102.39 4.5083H98.7359ZM102.133 12.1568H98.9673L100.55 8.01447L102.133 12.1568Z" fill="white"/>
<path d="M111.49 4.5083H108.437V17.3858H119.458V14.9365H111.49V4.5083Z" fill="white"/>
<path d="M124.009 4.5083H120.957V17.3858H131.978V14.9365H124.009V4.5083Z" fill="white"/>
<path d="M135.184 6.95756H139.163V17.3858H142.215V6.95756H146.204V4.5083H135.184V6.95756Z" fill="white"/>
<path d="M159.863 10.2954V6.38577L157.459 4.5083H147.982V17.3858H151.041V12.1717H154.392L156.706 17.3858H159.958L157.585 12.0788L159.863 10.2954ZM151.035 6.95385H155.966L156.81 7.61224V9.05905L155.966 9.71744H151.041L151.035 6.95385Z" fill="white"/>
<path d="M165.774 4.5083L160.86 17.3858H164.051L165.105 14.6073H170.076L171.151 17.3858H174.331L169.427 4.5083H165.774ZM169.171 12.1568H166.006L167.589 8.01447L169.171 12.1568Z" fill="white"/>
<path d="M175.332 4.5083V17.3858H184.808L187.212 15.5083V6.38577L184.808 4.5083H175.332ZM178.384 14.9365V6.95877H183.316L184.161 7.62339V14.2843L183.317 14.9427L178.384 14.9365Z" fill="white"/>
<path d="M200 6.95756V4.5083H188.98V17.3858H200V14.9365H192.033V12.1717H198.248V9.72243H192.033V6.95756H200Z" fill="white"/>
<path d="M94.9006 21.7139L93.8218 22.5555V26.6483L94.9006 27.4911H98.0738L99.1526 26.6483V25.5295H97.7828V26.0926L97.4041 26.3921H95.5703L95.1965 26.0963V23.1074L95.5752 22.8092H97.4041L97.7828 23.1074V23.6755H99.1526V22.5555L98.0738 21.7139H94.9006Z" fill="#019FC4"/>
<path d="M101.024 21.7139L99.9453 22.5554V26.6495L101.024 27.4911H104.197L105.276 26.6495V22.5554L104.197 21.7139H101.024ZM101.315 26.0963V23.1087L101.694 22.8129H103.528L103.906 23.1087V26.0963L103.528 26.3921H101.694L101.315 26.0963Z" fill="#019FC4"/>
<path d="M110.03 25.6421L107.988 21.7139H106.069V27.4911H107.438V23.5691L109.49 27.4911H111.399V21.7139H110.03V25.6421Z" fill="#019FC4"/>
<path d="M113.271 21.7139L112.192 22.5555V24.3092L113.271 25.152H115.78L116.158 25.4503V26.0926L115.775 26.3921H113.94L113.562 26.0963V25.6124H112.192V26.6483L113.271 27.4911H116.444L117.522 26.6483V24.8946L116.444 24.053H113.941L113.567 23.7572V23.1074L113.946 22.8092H115.775L116.153 23.1074V23.5926H117.522V22.5555L116.444 21.7139H113.271Z" fill="#019FC4"/>
<path d="M118.316 22.8129H120.101V27.4911H121.471V22.8129H123.259V21.7139H118.316V22.8129Z" fill="#019FC4"/>
<path d="M129.387 24.3104V22.5554L128.309 21.7139H124.057V27.4911H125.426V25.152H126.931L127.969 27.4911H129.43L128.368 25.1074L129.387 24.3104ZM125.426 22.8129H127.639L128.018 23.1087V23.7572L127.639 24.053H125.426V22.8129Z" fill="#019FC4"/>
<path d="M134.146 26.0926L133.763 26.3921H131.929L131.555 26.0963V21.7139H130.18V26.6483L131.259 27.4911H134.432L135.511 26.6483V21.7139H134.141L134.146 26.0926Z" fill="#019FC4"/>
<path d="M137.383 21.7139L136.304 22.5555V26.6483L137.383 27.4911H140.556L141.635 26.6483V25.5295H140.265V26.0926L139.886 26.3921H138.052L137.679 26.0963V23.1074L138.057 22.8092H139.886L140.265 23.1074V23.6755H141.635V22.5555L140.556 21.7139H137.383Z" fill="#019FC4"/>
<path d="M142.427 22.8129H144.212V27.4911H145.582V22.8129H147.372V21.7139H142.427V22.8129Z" fill="#019FC4"/>
<path d="M149.54 21.7139H148.17V27.4911H149.54V21.7139Z" fill="#019FC4"/>
<path d="M151.415 21.7139L150.337 22.5554V26.6495L151.415 27.4911H154.588L155.667 26.6495V22.5554L154.588 21.7139H151.415ZM151.706 26.0963V23.1087L152.085 22.8129H153.918L154.297 23.1087V26.0963L153.918 26.3921H152.085L151.706 26.0963Z" fill="#019FC4"/>
<path d="M160.42 21.7139V25.6421L158.378 21.7139H156.459V27.4911H157.829V23.5691L159.881 27.4911H161.79V21.7139H160.42Z" fill="#019FC4"/>
</svg>
