<svg width="121" height="29" viewBox="0 0 121 29" fill="none" xmlns="http://www.w3.org/2000/svg">
<path d="M35.0693 20.415V8.88086H38.9127V17.2191H47.2247V20.4187L35.0693 20.415Z" fill="#002854"/>
<path d="M62.508 8.88086V15.3773C62.508 16.7346 62.24 17.8146 61.7041 18.6171C61.1681 19.4197 60.4009 19.9881 59.4023 20.3224C58.4042 20.6562 57.1566 20.8231 55.6595 20.8231C54.1624 20.8231 52.9148 20.6562 51.9168 20.3224C50.9187 19.9886 50.1514 19.423 49.615 18.6255C49.0785 17.828 48.8103 16.7452 48.8103 15.3773V8.88086H52.6536V15.2642C52.6536 16.0931 52.912 16.6909 53.4287 17.0575C53.9454 17.4242 54.6901 17.6075 55.6626 17.6075C56.6264 17.6075 57.369 17.4242 57.8904 17.0575C58.4117 16.6909 58.6717 16.0931 58.6701 15.2642V8.88086H62.508Z" fill="#002854"/>
<path d="M81.4418 20.415H77.5985V12.5615H77.5088L74.4678 20.415H71.5695L68.4857 12.4644H68.3812V20.415H64.7468V8.88086H70.6456L72.9848 15.3606H73.0885L75.3825 8.88086H81.4457L81.4418 20.415Z" fill="#002854"/>
<path d="M83.6755 20.415V8.88086H87.5189V20.4187L83.6755 20.415Z" fill="#002854"/>
<path d="M102.93 9.99322C104.226 11.0047 104.874 12.5559 104.874 14.6471C104.874 16.7382 104.226 18.2895 102.93 19.3009C101.634 20.3123 99.7104 20.818 97.1596 20.818C94.6166 20.818 92.6974 20.3123 91.402 19.3009C90.1066 18.2895 89.4579 16.7382 89.4558 14.6471C89.4558 12.5574 90.1038 11.0062 91.3997 9.99322C92.6956 8.98028 94.6148 8.47456 97.1573 8.47608C99.7096 8.47456 101.634 8.98028 102.93 9.99322ZM99.7788 16.9015C100.364 16.3786 100.657 15.6271 100.658 14.6471C100.658 13.667 100.365 12.9155 99.7788 12.3926C99.1934 11.8702 98.3196 11.609 97.1573 11.609C95.995 11.609 95.1235 11.8702 94.5428 12.3926C93.9617 12.9155 93.6711 13.667 93.6711 14.6471C93.6711 15.6271 93.9617 16.3786 94.5428 16.9015C95.124 17.4239 95.9955 17.6851 97.1573 17.6851C98.3191 17.6851 99.1929 17.4239 99.7788 16.9015Z" fill="#002854"/>
<path d="M115.07 11.3664C114.648 11.1642 114.039 11.063 113.245 11.063C112.431 11.063 111.85 11.1465 111.502 11.3134C111.154 11.4802 110.981 11.7253 110.981 12.0484C110.973 12.1617 110.998 12.2747 111.053 12.3748C111.108 12.4748 111.191 12.5578 111.292 12.6143C111.5 12.7326 111.858 12.8189 112.365 12.873L116.699 13.2606C118.011 13.3789 118.997 13.7183 119.657 14.2786C120.317 14.8389 120.647 15.6847 120.647 16.816C120.647 17.8826 120.381 18.7067 119.85 19.2882C119.319 19.8698 118.539 20.2711 117.511 20.4921C116.482 20.7131 115.124 20.8236 113.437 20.8236C111.817 20.8236 110.506 20.705 109.504 20.4678C108.502 20.2306 107.729 19.8051 107.187 19.1911C106.646 18.5777 106.356 17.7104 106.316 16.5892H110.79C110.899 17.2037 111.175 17.6267 111.617 17.8583C112.059 18.0899 112.717 18.2057 113.591 18.2057C114.485 18.2057 115.128 18.1167 115.52 17.9387C115.913 17.7607 116.109 17.4826 116.108 17.1043C116.108 16.7918 115.994 16.5642 115.766 16.4216C115.538 16.279 115.195 16.1874 114.738 16.147L110.567 15.7108C109.246 15.5712 108.253 15.2425 107.588 14.7247C106.923 14.2068 106.59 13.3825 106.59 12.2517C106.59 11.2908 106.855 10.534 107.387 9.98129C107.918 9.42855 108.678 9.03789 109.666 8.8093C110.654 8.58325 111.892 8.47021 113.382 8.47021C114.862 8.47021 116.094 8.58603 117.077 8.81765C118.06 9.04926 118.827 9.45055 119.378 10.0215C119.93 10.5925 120.22 11.3735 120.249 12.3647H115.825C115.795 12.1503 115.71 11.9466 115.578 11.7722C115.446 11.5979 115.272 11.4584 115.07 11.3664Z" fill="#002854"/>
<path fill-rule="evenodd" clip-rule="evenodd" d="M16.1975 24.2029C15.7269 24.2616 15.2471 24.2919 14.76 24.2919C14.2694 24.2919 13.7862 24.2612 13.3122 24.2016C13.0878 25.4361 12.4385 26.3494 11.5142 26.6599C10.7446 26.9197 10.009 26.686 9.92824 26.6604L9.92659 26.6599C8.19381 26.0797 7.70097 23.582 7.57311 21.7517C6.6695 21.015 5.88723 20.142 5.25968 19.1653C5.21031 19.3728 5.17142 19.5618 5.13585 19.7348C4.98956 20.4463 4.89929 20.8853 4.3655 21.2095C3.56939 21.6935 2.56664 21.4508 2.51362 21.4371C1.48748 21.1731 1.03758 20.2939 0.926074 20.0717C-0.165561 17.931 2.28126 15.3147 2.51362 15.0712C2.86898 14.7005 3.23585 14.3973 3.5904 14.1463C3.57326 13.8998 3.56455 13.651 3.56455 13.4003C3.56455 7.38506 8.57694 2.50873 14.76 2.50873C20.9431 2.50873 25.9555 7.38506 25.9555 13.4003C25.9555 13.6556 25.9465 13.9087 25.9288 14.1596C26.2768 14.4079 26.6363 14.707 26.9849 15.0712C27.2282 15.3147 29.6758 17.931 28.5826 20.0717C28.4719 20.2924 28.022 21.1716 26.9959 21.4371C26.9428 21.4508 25.9401 21.6935 25.144 21.2095C24.6131 20.8859 24.5229 20.4481 24.3768 19.7392C24.3415 19.5678 24.3029 19.3806 24.254 19.1753C23.6249 20.1521 22.8409 21.0249 21.9355 21.7611C21.8068 23.5905 21.3127 26.0807 19.5829 26.6599L19.5812 26.6604C19.5005 26.686 18.7648 26.9197 17.9953 26.6599C17.0714 26.3495 16.4221 25.4367 16.1975 24.2029Z" fill="#002854"/>
<path d="M14.7604 19.1273C18.8785 19.1273 22.217 16.5631 22.217 13.4001C22.217 10.237 18.8785 7.67285 14.7604 7.67285C10.6422 7.67285 7.30371 10.237 7.30371 13.4001C7.30371 16.5631 10.6422 19.1273 14.7604 19.1273Z" fill="white"/>
<path d="M11.5657 14.8518C12.4567 14.8518 13.179 13.9117 13.179 12.7521C13.179 11.5924 12.4567 10.6523 11.5657 10.6523C10.6747 10.6523 9.95239 11.5924 9.95239 12.7521C9.95239 13.9117 10.6747 14.8518 11.5657 14.8518Z" fill="#002854"/>
<path d="M17.6816 14.8518C18.5726 14.8518 19.2949 13.9117 19.2949 12.7521C19.2949 11.5924 18.5726 10.6523 17.6816 10.6523C16.7906 10.6523 16.0684 11.5924 16.0684 12.7521C16.0684 13.9117 16.7906 14.8518 17.6816 14.8518Z" fill="#002854"/>
</svg>
