<svg width="101" height="100" viewBox="0 0 101 100" fill="none" xmlns="http://www.w3.org/2000/svg">
<mask id="mask0_172_185" style="mask-type:luminance" maskUnits="userSpaceOnUse" x="0" y="0" width="101" height="100">
<path d="M0 1.52588e-05H101V100H0V1.52588e-05Z" fill="white"/>
</mask>
<g mask="url(#mask0_172_185)">
<path d="M40.7457 50.5L57.5701 66.7711L39.8444 83.9121L31.7152 91.7739C31.2343 92.2387 30.5823 92.4998 29.9025 92.5H24.3251C23.6444 92.5 22.9928 92.2387 22.5122 91.7739L14.891 84.4035C14.6529 84.1733 14.464 83.8999 14.3352 83.599C14.2064 83.2982 14.1401 82.9757 14.1401 82.65V77.2561C14.1401 76.5996 14.4104 75.9678 14.891 75.5028L23.0201 67.6412L40.7457 50.5Z" fill="#019FC4"/>
<path d="M100.5 16.9538L92.556 27.544C91.6325 28.7775 89.821 28.9014 88.732 27.8231L86.3934 25.5095L68.2212 43.5L64.6401 39.9544L82.8106 21.9622L80.474 19.6467C79.3782 18.5618 79.5182 16.7683 80.7559 15.8605L91.4518 7.99525C91.9394 7.63622 92.5411 7.46282 93.1471 7.50671C93.7532 7.5506 94.323 7.80885 94.7526 8.2343L100.259 13.6857C100.688 14.111 100.949 14.6752 100.993 15.2753C101.038 15.8753 100.863 16.4711 100.5 16.9538Z" fill="#019FC4"/>
<path d="M95.5331 67.1395C91.6076 63.3078 86.025 62.1142 81.0687 63.5666L44.0403 26.469C45.5217 21.4471 44.2822 15.7909 40.327 11.8266C37.1123 8.60752 32.784 7.18476 28.5869 7.55829C26.5188 7.74257 25.6207 10.2793 27.0871 11.7502L32.2902 16.9613C33.2795 17.9526 33.2795 19.5595 32.2902 20.5506C29.7599 23.0839 30.6991 22.1432 28.1741 24.6728C27.185 25.6639 25.5826 25.6639 24.5933 24.6728L19.3918 19.4616C17.922 17.989 15.39 18.8954 15.2077 20.9706C14.8316 25.234 16.2981 29.6284 19.6072 32.8606C23.5328 36.6923 29.1155 37.8843 34.0716 36.4333L71.1 73.531C69.6186 78.553 70.8581 84.209 74.8135 88.1735C78.028 91.3926 82.3563 92.8152 86.5536 92.4418C88.6216 92.2575 89.5197 89.721 88.0531 88.2499L82.8501 83.0388C81.8608 82.0477 81.8608 80.4404 82.8501 79.4495C85.3811 76.9157 84.4412 77.8571 86.9662 75.3273C87.9555 74.3363 89.5577 74.3363 90.547 75.3273L95.7485 80.5386C97.2183 82.0111 99.7503 81.1045 99.9326 79.0295C100.309 74.7661 98.8422 70.3718 95.5331 67.1395Z" fill="#019FC4"/>
</g>
</svg>
