<svg width="100" height="100" viewBox="0 0 100 100" fill="none" xmlns="http://www.w3.org/2000/svg">
<path d="M45.9428 79.7926C46.365 78.7943 46.9763 77.8869 47.7428 77.1204L79.5131 45.3502C81.1563 43.7068 83.8206 43.7068 85.4638 45.3502L91.4147 51.301C93.0581 52.9443 93.0581 55.6085 91.4147 57.2518L59.6445 89.0221C58.8779 89.7885 57.9706 90.3999 56.9722 90.8221L42.6358 96.8865C40.8954 97.6225 39.1423 95.8694 39.8785 94.129L45.9428 79.7926Z" fill="#019FC4"/>
<path fill-rule="evenodd" clip-rule="evenodd" d="M45.5883 2.94116C47.2127 2.94116 48.5295 4.25797 48.5295 5.88234V20.5882C48.5295 23.8369 51.1632 26.4706 54.4118 26.4706H69.1177C70.7421 26.4706 72.0589 27.7873 72.0589 29.4118V48.6447L53.0566 67.647H20.5883C19.7761 67.647 19.1177 68.3054 19.1177 69.1176C19.1177 69.9298 19.7761 70.5882 20.5883 70.5882H50.1154L45.663 75.0406C44.6286 76.075 43.8038 77.2996 43.2339 78.6468L40.4221 85.2941H10.2942C8.66984 85.2941 7.35303 83.9773 7.35303 82.3529V5.88234C7.35303 4.25797 8.66984 2.94116 10.2942 2.94116H45.5883ZM19.1177 33.8235C19.1177 33.0113 19.7761 32.3529 20.5883 32.3529H44.1177C44.9299 32.3529 45.5883 33.0113 45.5883 33.8235C45.5883 34.6357 44.9299 35.2941 44.1177 35.2941H20.5883C19.7761 35.2941 19.1177 34.6357 19.1177 33.8235ZM19.1177 45.5882C19.1177 44.776 19.7761 44.1176 20.5883 44.1176H58.8236C59.6358 44.1176 60.2942 44.776 60.2942 45.5882C60.2942 46.4004 59.6358 47.0588 58.8236 47.0588H20.5883C19.7761 47.0588 19.1177 46.4004 19.1177 45.5882ZM20.5883 55.8823C19.7761 55.8823 19.1177 56.5407 19.1177 57.3529C19.1177 58.1651 19.7761 58.8235 20.5883 58.8235H58.8236C59.6358 58.8235 60.2942 58.1651 60.2942 57.3529C60.2942 56.5407 59.6358 55.8823 58.8236 55.8823H20.5883Z" fill="#019FC4"/>
<path d="M53.9811 5.45162C53.0547 4.5252 51.4707 5.18133 51.4707 6.49147V20.5882C51.4707 22.2126 52.7875 23.5294 54.4119 23.5294H68.5086C69.8188 23.5294 70.475 21.9454 69.5485 21.019L53.9811 5.45162Z" fill="#019FC4"/>
</svg>
