<svg width="99" height="92" viewBox="0 0 99 92" fill="none" xmlns="http://www.w3.org/2000/svg">
<path d="M27.0986 65.1408C23.108 51.0463 19.1342 36.9519 15.1771 22.8575H15.1603C13.0403 24.5499 10.3468 25.3755 7.63184 25.165L25.6901 89.1793C25.9159 89.9777 26.4521 90.6549 27.1813 91.0626C27.9104 91.4702 28.7731 91.575 29.5801 91.3541L31.106 90.9225C31.5039 90.8132 31.8762 90.6272 32.2013 90.3751C32.5264 90.123 32.7981 89.8098 33.0006 89.4534C33.2032 89.0971 33.3326 88.7047 33.3815 88.2987C33.4305 87.8927 33.3979 87.4811 33.2857 87.0876L27.0986 65.1408ZM97.6719 43.4264C91.5307 40.4029 85.852 36.5353 80.804 31.9383C80.5952 31.7526 80.4436 31.5123 80.3664 31.2451C80.2893 30.9779 80.2899 30.6945 80.3681 30.4276C82.8775 21.0404 84.7374 11.4947 85.9348 1.85691C86.136 0.263194 85.2474 -0.20164 84.3419 0.89404C67.1723 21.2139 38.0979 -0.649872 19.2851 13.8596C19.3136 14.0422 19.3236 14.2248 19.3186 14.4074C19.3207 16.324 18.7992 18.2055 17.8095 19.8526L18.4132 21.961C22.169 35.325 25.9417 48.6939 29.731 62.0695C48.3762 43.2271 79.3453 68.129 97.303 46.8462C98.2252 45.7505 98.4096 43.7418 97.6719 43.4264Z" fill="#019FC4"/>
<path d="M8.41977 21.878C12.5869 21.878 15.965 18.5333 15.965 14.4074C15.965 10.2816 12.5869 6.93687 8.41977 6.93687C4.25264 6.93687 0.874512 10.2816 0.874512 14.4074C0.874512 18.5333 4.25264 21.878 8.41977 21.878Z" fill="#019FC4"/>
</svg>
