<svg width="101" height="100" viewBox="0 0 101 100" fill="none" xmlns="http://www.w3.org/2000/svg">
<path d="M79.7408 46.8172C78.6629 47.8844 78.6546 49.6126 79.7408 50.688C83.1345 54.052 83.1329 59.4827 79.7408 62.845C79.4836 63.0989 79.2796 63.4006 79.1404 63.7327C79.0012 64.0648 78.9295 64.4208 78.9295 64.7804C78.9295 65.1399 79.0012 65.496 79.1404 65.8281C79.2796 66.1602 79.4836 66.4618 79.7408 66.7157C83.1347 70.0759 83.1329 75.5105 79.7408 78.8728L79.6599 78.9529C76.273 82.3041 70.7656 82.3041 67.3807 78.9529C67.1243 78.6983 66.8196 78.4962 66.4841 78.3584C66.1487 78.2206 65.7891 78.1496 65.4259 78.1496C65.0627 78.1496 64.7031 78.2206 64.3677 78.3584C64.0322 78.4962 63.7276 78.6983 63.4711 78.9529C60.0734 82.3127 54.5881 82.3113 51.1919 78.9529C50.1052 77.8769 48.3596 77.8863 47.2823 78.9529C43.8888 82.3128 38.3971 82.3113 35.0051 78.9529C33.9206 77.8792 32.1708 77.8843 31.0955 78.9529C27.6621 82.3482 22.1716 82.273 18.8183 78.9529C17.732 77.8814 15.9884 77.8822 14.9068 78.9529C11.516 82.3099 6.02567 82.3132 2.62955 78.9548L2.5467 78.8728C-0.840151 75.5197 -0.840151 70.0669 2.54473 66.7157C2.8019 66.4619 3.00595 66.1602 3.14517 65.8281C3.2844 65.496 3.35606 65.14 3.35606 64.7804C3.35606 64.4208 3.2844 64.0648 3.14517 63.7327C3.00595 63.4006 2.8019 63.0989 2.54473 62.845C-0.84883 59.4811 -0.84745 54.0503 2.54473 50.688C2.8019 50.4341 3.00595 50.1324 3.14517 49.8003C3.2844 49.4682 3.35606 49.1122 3.35606 48.7526C3.35606 48.393 3.2844 48.037 3.14517 47.7049C3.00595 47.3728 2.8019 47.0711 2.54473 46.8172C-0.842124 43.4641 -0.854354 38.0274 2.54473 34.6621C3.62909 33.5885 3.62396 31.8559 2.54473 30.7914C-0.847055 27.4293 -0.849422 21.9947 2.54473 18.6344C2.8019 18.3805 3.00595 18.0788 3.14517 17.7467C3.2844 17.4146 3.35606 17.0586 3.35606 16.699C3.35606 16.3394 3.2844 15.9834 3.14517 15.6513C3.00595 15.3192 2.8019 15.0175 2.54473 14.7637C0.905056 13.1387 0.00158033 10.9804 0.00158033 8.68591C0.00158033 1.14371 9.35965 -2.96724 14.9064 2.52437C15.1628 2.77899 15.4675 2.981 15.8029 3.11883C16.1384 3.25667 16.498 3.32762 16.8612 3.32762C17.2243 3.32762 17.584 3.25667 17.9194 3.11883C18.2548 2.981 18.5595 2.77899 18.816 2.52437C22.2099 -0.835791 27.699 -0.834033 31.0951 2.52437C32.1685 3.59117 33.9186 3.59977 35.0047 2.52437C38.3983 -0.8354 43.89 -0.834033 47.2819 2.52437C47.5384 2.77899 47.8431 2.981 48.1785 3.11883C48.514 3.25667 48.8736 3.32762 49.2367 3.32762C49.5999 3.32762 49.9595 3.25667 50.295 3.11883C50.6304 2.981 50.9351 2.77899 51.1915 2.52437C54.5894 -0.835595 60.0746 -0.834033 63.4707 2.52437C63.7272 2.77899 64.0318 2.981 64.3673 3.11883C64.7027 3.25667 65.0623 3.32762 65.4255 3.32762C65.7887 3.32762 66.1483 3.25667 66.4837 3.11883C66.8192 2.981 67.1239 2.77899 67.3803 2.52437C70.7739 -0.8354 76.2655 -0.834033 79.6575 2.52437L79.7423 2.60836C83.1253 5.95954 83.1233 11.4123 79.7404 14.7635C79.4827 15.017 79.2784 15.3185 79.1392 15.6507C79 15.9829 78.9288 16.3392 78.9296 16.6988C78.9296 17.9478 79.7053 18.5811 79.9436 18.8451C83.0966 22.1791 83.098 27.4631 79.7404 30.7914C78.6629 31.8541 78.6542 33.5869 79.7404 34.6621C83.1343 38.0219 83.1329 43.4588 79.7408 46.8172Z" fill="#019FC4"/>
<path d="M98.4646 49.6276C97.4002 50.6813 97.397 52.3907 98.4646 53.4475C101.844 56.7934 101.845 62.2096 98.4646 65.5557C97.3959 66.6139 97.4014 68.3231 98.4646 69.3757C101.838 72.7151 101.851 78.129 98.4646 81.4819C97.3957 82.5443 97.4016 84.2513 98.4646 85.3038C100.098 86.9208 100.997 89.071 100.997 91.3579C100.997 96.1 97.0467 99.9978 92.2707 99.9978C89.9607 99.9978 87.789 99.1072 86.1557 97.4902C85.0936 96.4386 83.3693 96.431 82.2954 97.4902C78.9087 100.843 73.4404 100.83 70.0675 97.4902C69.0031 96.4365 67.2768 96.4332 66.2092 97.4902C62.8296 100.836 57.3591 100.836 53.9793 97.4902C52.9106 96.432 51.1843 96.4376 50.121 97.4902C46.748 100.83 41.2798 100.843 37.8931 97.4902C36.82 96.4318 35.0959 96.4376 34.0328 97.4902C34.0072 97.5156 33.9816 97.541 33.9559 97.5644C32.3324 99.1345 30.1923 99.9978 27.9178 99.9978C21.1114 99.9978 16.8069 92.412 20.5977 86.6728C24.6551 87.9284 29.2748 87.4075 33.0505 84.9093C37.9245 88.137 44.3609 88.1386 49.2375 84.9093C54.1227 88.1417 60.5569 88.1339 65.4264 84.9093C71.0146 88.6085 78.7778 88.1095 83.8443 83.097L83.9272 83.015C88.9827 78.0024 89.509 70.3329 85.7578 64.7801C89.018 59.9504 89.0196 53.5842 85.7578 48.7522C89.018 43.9266 89.0196 37.5543 85.7578 32.7262C88.268 29.0076 88.8142 24.434 87.5391 20.3953C90.8605 18.2373 95.411 18.5668 98.3844 21.5103L98.41 21.5357L98.479 21.606C101.846 24.9554 101.84 30.3578 98.4652 33.6986C97.4051 34.7482 97.3933 36.4553 98.4652 37.5205C101.851 40.8742 101.838 46.2881 98.4646 49.6276Z" fill="#019FC4"/>
</svg>
