<svg width="96" height="96" viewBox="0 0 96 96" fill="none" xmlns="http://www.w3.org/2000/svg">
<path d="M51.4844 91.4807C58.9916 90.8237 66.2018 88.2389 72.4163 83.9765C78.6309 79.7141 83.6391 73.9188 86.9557 67.152C90.2723 60.3853 91.7848 52.8766 91.3467 45.3535C90.9085 37.8304 88.5346 30.548 84.4549 24.2121C84.2257 23.8729 83.8726 23.6372 83.4714 23.5557C83.0703 23.4741 82.6532 23.5533 82.3098 23.7761C81.9664 23.9988 81.7241 24.3475 81.6351 24.747C81.5461 25.1466 81.6174 25.5651 81.8337 25.9126C85.4063 31.4555 87.5717 37.7867 88.1418 44.3564C90.6202 98.2314 14.1155 104.925 7.20096 51.4378C4.20155 21.4571 35.8141 -1.57957 63.3914 10.4376C63.5803 10.5176 63.7832 10.5596 63.9884 10.5611C64.1936 10.5627 64.3971 10.5238 64.5873 10.4467C64.7774 10.3697 64.9506 10.2559 65.0968 10.1119C65.2429 9.96789 65.3594 9.79652 65.4393 9.60755C65.5193 9.41857 65.5612 9.2157 65.5628 9.01051C65.5644 8.80532 65.5255 8.60183 65.4484 8.41166C65.3713 8.22149 65.2576 8.04836 65.1136 7.90217C64.9696 7.75597 64.7982 7.63957 64.6092 7.5596C58.0597 4.80443 50.9364 3.69017 43.8583 4.31362C-13.7431 11.7607 -6.53489 94.1507 51.4844 91.4807Z" fill="white"/>
<path d="M46.5818 35.4446C47.9292 35.3258 49.2871 35.4323 50.5995 35.7597C51.0016 35.8599 51.427 35.7963 51.7822 35.5829C52.1374 35.3694 52.3932 35.0236 52.4935 34.6216C52.9377 31.8112 48.0986 32.3444 46.3094 32.3315C25.7363 34.9909 28.3123 64.4159 49.033 63.4626C53.1595 63.097 56.9724 61.1095 59.6352 57.936C62.298 54.7626 63.5933 50.6625 63.2368 46.5352C62.92 44.7435 62.6045 39.9355 59.923 40.8571C59.5448 41.0256 59.249 41.3374 59.1005 41.7239C58.9519 42.1103 58.9629 42.54 59.1309 42.9184C59.6756 44.1506 60.0111 45.465 60.1236 46.8076C60.9426 63.357 37.2845 65.4268 35.2188 48.9865C34.9341 45.6848 35.9704 42.405 38.1006 39.8664C40.2308 37.3277 43.2808 35.7376 46.5818 35.4446Z" fill="white"/>
<path d="M60.4964 22.8325C60.58 22.645 60.6258 22.4428 60.6312 22.2376C60.6367 22.0324 60.6016 21.8281 60.528 21.6364C60.4544 21.4448 60.3438 21.2695 60.2024 21.1206C60.0611 20.9717 59.8918 20.8521 59.7042 20.7687C55.1162 18.7295 50.0857 17.888 45.0838 18.3227C5.99743 23.3767 10.8886 79.2834 50.2587 77.4718C55.4036 77.0247 60.3427 75.2425 64.5877 72.3014C68.8327 69.3603 72.2365 65.3622 74.4626 60.7023C76.6887 56.0424 77.66 50.8822 77.2803 45.7318C76.9007 40.5815 75.1834 35.6194 72.2981 31.3363C72.0663 30.9926 71.7074 30.755 71.3005 30.6759C70.8935 30.5968 70.4718 30.6826 70.1281 30.9144C69.7844 31.1463 69.5469 31.5051 69.4678 31.9121C69.3886 32.319 69.4744 32.7408 69.7063 33.0845C81.0717 49.3307 69.7845 72.9716 49.9863 74.3587C42.97 74.9646 35.9999 72.7627 30.6051 68.2359C25.2103 63.7091 21.8314 57.2272 21.2098 50.2123C19.1411 30.4753 40.4565 15.2534 58.4326 23.6248C58.6201 23.7088 58.8223 23.7549 59.0276 23.7605C59.233 23.7662 59.4374 23.7312 59.6292 23.6575C59.821 23.5839 59.9963 23.4731 60.1451 23.3315C60.294 23.19 60.4134 23.0204 60.4964 22.8325Z" fill="white"/>
<path d="M63.1439 18.1511L64.3684 25.5679L46.4745 46.893C46.2167 47.2113 46.0942 47.6183 46.1334 48.0261C46.1727 48.4339 46.3705 48.81 46.6844 49.0733C46.9982 49.3367 47.4029 49.4662 47.8114 49.4341C48.2198 49.4019 48.5993 49.2106 48.868 48.9014L66.7619 27.5763L74.2787 27.4943C74.5038 27.4918 74.7258 27.4406 74.9293 27.3443C75.1329 27.2479 75.3132 27.1088 75.458 26.9363L85.7954 14.6165C85.9828 14.3863 86.1012 14.1078 86.137 13.8131C86.1728 13.5184 86.1245 13.2196 85.9977 12.9512C85.8709 12.6828 85.6707 12.4558 85.4203 12.2963C85.17 12.1368 84.8796 12.0514 84.5828 12.05L77.688 12.1246L76.5643 5.32166C76.5113 5.02958 76.3768 4.75844 76.1762 4.53957C75.9757 4.32069 75.7174 4.16301 75.431 4.08473C75.1447 4.00645 74.842 4.01076 74.5581 4.09718C74.2741 4.18359 74.0203 4.34858 73.8261 4.57308L63.4886 16.8928C63.3437 17.0652 63.2378 17.2669 63.1783 17.4842C63.1188 17.7014 63.1071 17.9289 63.1439 18.1511ZM74.0351 9.18491C75.2919 16.3793 73.9537 15.2103 81.2174 15.2116L73.5261 24.3777L67.3505 24.4443L66.3439 18.3526L74.0351 9.18491Z" fill="white"/>
</svg>
