<svg width="93" height="93" viewBox="0 0 93 93" fill="none" xmlns="http://www.w3.org/2000/svg">
<g clip-path="url(#clip0_172_1137)">
<path d="M9.35361 22.1517C9.54605 24.3513 9.72099 26.4822 9.89025 28.5426C11.0896 43.1488 12.037 54.6854 17.1646 64.2951C19.8584 69.3436 23.6176 73.684 28.6578 77.5645C33.8875 81.5913 40.6494 85.2478 49.3298 88.7446C49.6208 88.8618 49.9353 88.9087 50.2478 88.8813C50.5603 88.854 50.862 88.7532 51.1282 88.5873C59.0695 83.6367 65.0937 78.8611 69.5447 73.9873C73.8333 69.2907 76.7822 64.3634 78.5591 58.9238C81.9401 48.57 80.8697 37.0438 79.5145 22.4512C79.3235 20.3928 79.1257 18.2643 78.9333 16.0642C78.8984 15.6658 78.7445 15.2872 78.4915 14.9774C78.2385 14.6677 77.8982 14.4413 77.5148 14.3277L43.5787 4.27919C43.0952 4.13604 42.5755 4.18151 42.1243 4.40643L10.4495 20.1951C10.0915 20.3736 9.79556 20.6556 9.60011 21.0046C9.40466 21.3535 9.31877 21.7532 9.35361 22.1517ZM13.8611 28.2165C13.7263 26.5748 13.5858 24.8881 13.4398 23.1565L43.1992 8.32282L75.0823 17.7635C75.2372 19.4957 75.3918 21.1811 75.546 22.8197C78.2003 51.4038 79.5454 65.8868 49.8784 84.6667C17.4011 71.3237 16.2108 56.8272 13.8611 28.2165ZM31.4485 47.9803C31.0775 47.6122 30.866 47.1131 30.8596 46.5905C30.8532 46.0679 31.0524 45.5638 31.4143 45.1867C31.7761 44.8097 32.2716 44.5899 32.794 44.5748C33.3164 44.5596 33.8238 44.7504 34.2069 45.1059L43.5052 54.0271L61.5546 33.6775C61.9052 33.2822 62.3985 33.0424 62.9259 33.0107C63.4533 32.9791 63.9717 33.1583 64.367 33.5089C64.7623 33.8595 65.0022 34.3527 65.0338 34.8801C65.0654 35.4076 64.8862 35.926 64.5357 36.3213L45.1113 58.2205C44.7732 58.6016 44.302 58.8387 43.7945 58.8831C43.7636 58.8858 43.7323 58.8886 43.7011 58.8891C43.4332 58.8999 43.1659 58.8564 42.9151 58.7614C42.6644 58.6664 42.4355 58.5218 42.242 58.3362L31.4485 47.9803Z" fill="white"/>
</g>
<defs>
<clipPath id="clip0_172_1137">
<rect width="85" height="85" fill="white" transform="translate(0.500488 7.90894) rotate(-5)"/>
</clipPath>
</defs>
</svg>
