<svg width="93" height="93" viewBox="0 0 93 93" fill="none" xmlns="http://www.w3.org/2000/svg">
<path d="M45.0327 17.1498L45.0327 17.1497L44.9284 17.1182C41.332 16.1174 37.4022 15.0252 32.5946 14.8498L32.594 14.8498C27.7178 14.6667 22.0908 15.4218 14.9265 17.8884L14.9168 17.8917L14.9168 17.8916C14.2606 18.1026 13.6955 18.5303 13.3141 19.1045C12.9328 19.6787 12.7578 20.3655 12.8178 21.0522C12.8178 21.0522 12.8178 21.0522 12.8178 21.0522L18.0653 81.0314C18.1357 81.835 18.5223 82.5778 19.1403 83.0963C19.7583 83.6149 20.5569 83.8667 21.3605 83.7964C22.1642 83.7261 22.9069 83.3394 23.4255 82.7214C23.944 82.1035 24.1958 81.3048 24.1255 80.5012L22.5195 62.144L22.484 61.7379L22.8746 61.6213C28.1772 60.0383 32.2942 59.6101 35.764 59.7371L35.7643 59.7371C39.8215 59.8881 43.1484 60.8017 46.8079 61.8209L46.8183 61.8238L46.8183 61.8239L46.9226 61.8554C50.5189 62.8561 54.4488 63.9484 59.2564 64.1237L59.2568 64.1238C64.1471 64.3056 69.7983 63.5449 76.9968 61.0612C77.6376 60.8397 78.186 60.4105 78.5549 59.8416C78.9239 59.2728 79.0923 58.5969 79.0332 57.9214L75.6377 19.1115C75.6377 19.1114 75.6377 19.1114 75.6377 19.1113C75.5973 18.6511 75.4526 18.2062 75.2146 17.8102L75.6431 17.5526L75.2146 17.8102C74.9765 17.4143 74.6514 17.0777 74.2639 16.8261L74.5361 16.4068L74.2639 16.8261C73.8764 16.5746 73.4366 16.4146 72.978 16.3584C72.5195 16.3021 72.0543 16.3511 71.6175 16.5014C71.6174 16.5015 71.6173 16.5015 71.6172 16.5015L71.4544 16.0288C64.8975 18.2912 60.061 18.8849 56.1054 18.7368L45.0327 17.1498ZM45.0327 17.1498L45.0431 17.1527C48.7026 18.1718 52.0295 19.0855 56.0866 19.2365L45.0327 17.1498ZM19.4791 22.8112L19.0885 22.9278L19.124 23.3339L21.8907 54.9571L21.9429 55.5538L22.5207 55.3958C27.7508 53.9652 32.1072 53.5124 35.9893 53.6599L35.99 53.6599C40.7976 53.8353 44.7275 54.9275 48.3239 55.9283L48.4282 55.9598L48.4281 55.9599L48.4386 55.9628C52.0981 56.9819 55.425 57.8956 59.4822 58.0466L59.4825 58.0466C62.9522 58.1735 67.0692 57.7453 72.3719 56.1623L72.7625 56.0457L72.727 55.6396L69.9603 24.0165L69.9081 23.4197L69.3303 23.5778C64.1002 25.0084 59.7439 25.4612 55.8618 25.3137L55.861 25.3137C51.0534 25.1383 47.1235 24.046 43.5272 23.0453L43.4228 23.0138L43.4229 23.0137L43.4125 23.0108C39.7529 21.9916 36.4261 21.078 32.3688 20.927L32.3685 20.927C28.8988 20.8 24.7818 21.2282 19.4791 22.8112Z" fill="white" stroke="#019FC4"/>
</svg>
